<svg width="44" height="45" viewBox="0 0 44 45" fill="none" xmlns="http://www.w3.org/2000/svg">
<g clip-path="url(#clip0)">
<path d="M40.1917 42.8699H3.80825C2.43432 42.8699 1.20267 42.1602 0.513686 40.9716C-0.161201 39.8071 -0.171518 38.4336 0.485315 37.2029L18.6772 3.12559C19.3286 1.90529 20.5708 1.17676 22 1.17676C23.4292 1.17676 24.6713 1.90529 25.3228 3.12559L43.5146 37.2028C44.1716 38.4334 44.1612 39.8071 43.4862 40.9716C42.7973 42.1602 41.5658 42.8699 40.1917 42.8699Z" fill="#FF4C04"/>
<path d="M43.5145 37.2028L25.3227 3.12559C24.6712 1.90529 23.4291 1.17676 21.9999 1.17676V42.8699H40.1917C41.5657 42.8699 42.7973 42.1602 43.4861 40.9716C44.161 39.8071 44.1714 38.4334 43.5145 37.2028Z" fill="#E10000"/>
<path d="M22 37.284C20.1037 37.284 18.561 35.7414 18.561 33.8452C18.561 31.9489 20.1037 30.4062 22 30.4062C23.8962 30.4062 25.4389 31.9489 25.4389 33.8452C25.4389 35.7414 23.8962 37.284 22 37.284Z" fill="#FFF3F3"/>
<path d="M22 26.9668C20.1037 26.9668 18.561 25.4241 18.561 23.5279V16.0913C18.561 14.195 20.1037 12.6523 22 12.6523C23.8962 12.6523 25.4389 14.195 25.4389 16.0913V23.5279C25.4389 25.4241 23.8963 26.9668 22 26.9668Z" fill="#FFF3F3"/>
<path d="M22 12.6523H21.9999V26.9668H22C23.8963 26.9668 25.4389 25.4241 25.4389 23.5279V16.0913C25.4389 14.1951 23.8962 12.6523 22 12.6523Z" fill="#DAD0CB"/>
<path d="M22 30.4062H21.9999V37.284H22C23.8962 37.284 25.4389 35.7414 25.4389 33.8452C25.4389 31.9489 23.8962 30.4062 22 30.4062Z" fill="#DAD0CB"/>
</g>
<defs>
<clipPath id="clip0">
<rect width="44" height="44" fill="white" transform="translate(0 0.0234375)"/>
</clipPath>
</defs>
</svg>
