<svg width="44" height="45" viewBox="0 0 44 45" fill="none" xmlns="http://www.w3.org/2000/svg">
<g clip-path="url(#clip0)">
<path d="M15.2347 14.7041C13.803 14.7041 12.6382 16.1096 12.6382 17.8371C12.6382 19.5646 13.803 20.9701 15.2347 20.9701C16.6664 20.9701 17.8312 19.5646 17.8312 17.8371C17.8312 16.1096 16.6664 14.7041 15.2347 14.7041ZM15.2347 19.6789C14.5272 19.6789 13.9294 18.8354 13.9294 17.8371C13.9294 16.8387 14.5272 15.9953 15.2347 15.9953C15.9422 15.9953 16.54 16.8388 16.54 17.8371C16.54 18.8355 15.9422 19.6789 15.2347 19.6789Z" fill="#6F7780"/>
<path d="M28.7774 14.7041C27.3457 14.7041 26.1809 16.1096 26.1809 17.8371C26.1809 19.5646 27.3457 20.9701 28.7774 20.9701C30.2091 20.9701 31.3739 19.5646 31.3739 17.8371C31.3739 16.1096 30.2091 14.7041 28.7774 14.7041ZM28.7773 19.6789C28.0697 19.6789 27.4719 18.8353 27.4719 17.8371C27.4719 16.8387 28.0697 15.9953 28.7773 15.9953C29.4848 15.9953 30.0826 16.8388 30.0826 17.8371C30.0826 18.8355 29.4848 19.6789 28.7773 19.6789Z" fill="#6F7780"/>
<path d="M22.4295 27.7822C20.9371 28.115 19.5878 28.7669 18.7276 29.5709C18.3021 29.9685 18.5841 30.6882 19.1686 30.6882C19.3265 30.6882 19.4848 30.6306 19.6093 30.5142C21.5889 28.6642 25.9751 28.3444 27.0168 29.5661C27.2482 29.8374 27.6557 29.8698 27.927 29.6385C28.9038 28.8055 26.5616 26.8611 22.4295 27.7822Z" fill="#6F7780"/>
<path d="M35.6257 4.74688C35.3457 4.52628 34.9398 4.57441 34.7191 4.85439C34.4985 5.13438 34.5465 5.54034 34.8266 5.76103C46.3033 14.8045 45.0344 32.6303 32.3571 39.9496C25.6698 43.8106 17.457 43.6421 10.9239 39.5102C10.6226 39.3197 10.2239 39.4094 10.0332 39.7108C9.84256 40.0122 9.93236 40.411 10.2337 40.6016C17.0502 44.9125 25.7742 45.2412 33.0027 41.0677C46.4665 33.2945 47.8232 14.3581 35.6257 4.74688Z" fill="#6F7780"/>
<path d="M33.0579 3.0021C20.58 -4.23272 4.52561 2.28908 0.763695 16.3292C-1.51975 24.8512 1.51986 33.4608 7.7352 38.7602C7.85672 38.8638 8.00565 38.9145 8.15372 38.9145C8.75279 38.9145 9.02745 38.1652 8.57292 37.7777C-2.28795 28.5173 -0.734883 11.2471 11.6564 4.09316C18.1106 0.366911 26.0059 0.405927 32.4104 4.1192C32.7186 4.29804 33.114 4.19302 33.2927 3.88442C33.4715 3.57599 33.3664 3.18093 33.0579 3.0021Z" fill="#6F7780"/>
</g>
<defs>
<clipPath id="clip0">
<rect width="44" height="44" fill="white" transform="translate(0 0.0234375)"/>
</clipPath>
</defs>
</svg>
