<svg width="45" height="45" viewBox="0 0 45 45" fill="none" xmlns="http://www.w3.org/2000/svg">
<rect x="0.0263672" y="0.0234375" width="44.1287" height="44.1287" rx="22.0643" fill="#5CE0B1"/>
<path d="M15.2769 15.1185C17.128 15.1185 18.5942 15.7091 19.6755 16.8903C20.7627 18.0715 21.3062 19.6728 21.3062 21.6944C21.3062 23.7159 20.7627 25.3172 19.6755 26.4984C18.5942 27.6737 17.128 28.2614 15.2769 28.2614C13.42 28.2614 11.9479 27.6737 10.8607 26.4984C9.77946 25.3172 9.23882 23.7159 9.23882 21.6944C9.23882 19.6728 9.77946 18.0715 10.8607 16.8903C11.9479 15.7091 13.42 15.1185 15.2769 15.1185ZM17.9831 18.3183C17.3131 17.478 16.4111 17.0578 15.2769 17.0578C14.1428 17.0578 13.2407 17.475 12.5708 18.3095C11.9009 19.144 11.5659 20.2722 11.5659 21.6944C11.5659 23.1106 11.9009 24.236 12.5708 25.0704C13.2407 25.9049 14.1428 26.3221 15.2769 26.3221C16.4111 26.3221 17.3131 25.9049 17.9831 25.0704C18.653 24.236 18.9879 23.1106 18.9879 21.6944C18.9879 20.2781 18.653 19.1528 17.9831 18.3183ZM25.3169 28.0498H23.1221V15.3301H25.0966L31.4079 24.2418H31.4873V15.3301H33.6733V28.0498H31.7165L25.3963 19.1293H25.3169V28.0498Z" fill="white"/>
</svg>
