<svg width="45" height="45" viewBox="0 0 45 45" fill="none" xmlns="http://www.w3.org/2000/svg">
<rect x="0.423828" y="0.0234375" width="44.1287" height="44.1287" rx="22.0643" fill="#F5F5F5"/>
<path d="M12.6656 28.2702C16.3854 28.2702 18.6949 25.7403 18.6949 21.6944V21.6767C18.6949 17.6396 16.3766 15.1097 12.6656 15.1097C8.9634 15.1097 6.62749 17.6396 6.62749 21.6767V21.6944C6.62749 25.7403 8.94578 28.2702 12.6656 28.2702ZM12.6656 26.2957C10.3914 26.2957 8.94578 24.5239 8.94578 21.6944V21.6767C8.94578 18.8472 10.4002 17.0842 12.6656 17.0842C14.9398 17.0842 16.3854 18.856 16.3854 21.6767V21.6944C16.3854 24.4975 14.9663 26.2957 12.6656 26.2957ZM20.5107 28.0498H22.785V22.8579H28.1179V21.0068H22.785V17.2429H28.6203V15.3301H20.5107V28.0498ZM30.2775 28.0498H32.5517V22.8579H37.8846V21.0068H32.5517V17.2429H38.3871V15.3301H30.2775V28.0498Z" fill="#43484D"/>
</svg>
