<?xml version="1.0" encoding="utf-8"?>
<!-- Generator: Adobe Illustrator 24.0.3, SVG Export Plug-In . SVG Version: 6.00 Build 0)  -->
<svg version="1.1" id="Layer_1" xmlns="http://www.w3.org/2000/svg" xmlns:xlink="http://www.w3.org/1999/xlink" x="0px" y="0px"
	 viewBox="0 0 63 62" style="enable-background:new 0 0 63 62;" xml:space="preserve">
<style type="text/css">
	.st0{fill:#64B5F6;}
	.st1{fill:none;stroke:#FFFFFF;stroke-width:1.5;stroke-linecap:round;stroke-linejoin:round;}
</style>
<path class="st0" d="M31.8,0L31.8,0c17.1,0,31,13.9,31,31l0,0c0,17.1-13.9,31-31,31l0,0c-17.1,0-31-13.9-31-31l0,0
	C0.8,13.9,14.6,0,31.8,0z"/>
<path class="st1" d="M31.7,16v14.2"/>
<path class="st1" d="M40.8,17.2c3,1.9,5.3,4.8,6.5,8.1c1.2,3.3,1.3,7,0.3,10.4c-1,3.4-3.1,6.4-5.9,8.5c-2.9,2.1-6.3,3.3-9.9,3.3
	s-7-1.1-9.9-3.3c-2.9-2.1-4.9-5.1-5.9-8.5s-0.9-7.1,0.3-10.4c1.2-3.3,3.5-6.2,6.5-8.1"/>
</svg>
