<svg width="18" height="22" viewBox="0 0 18 22" fill="none" xmlns="http://www.w3.org/2000/svg">
<path d="M16.5 2H13.5C13.3011 2 13.1103 2.07902 12.9697 2.21967C12.829 2.36032 12.75 2.55109 12.75 2.75V3.5H5.25V2.75C5.25 2.55109 5.17098 2.36032 5.03033 2.21967C4.88968 2.07902 4.69891 2 4.5 2H1.5C1.30109 2 1.11032 2.07902 0.96967 2.21967C0.829018 2.36032 0.75 2.55109 0.75 2.75V20.75C0.75 20.9489 0.829018 21.1397 0.96967 21.2803C1.11032 21.421 1.30109 21.5 1.5 21.5H16.5C16.6989 21.5 16.8897 21.421 17.0303 21.2803C17.171 21.1397 17.25 20.9489 17.25 20.75V2.75C17.25 2.55109 17.171 2.36032 17.0303 2.21967C16.8897 2.07902 16.6989 2 16.5 2Z" fill="#FF6B6B"/>
<path d="M17.25 17.8699V20.7499C17.2494 20.9487 17.1702 21.1391 17.0297 21.2796C16.8892 21.4201 16.6987 21.4993 16.5 21.4999H1.5C1.30126 21.4993 1.11083 21.4201 0.970304 21.2796C0.829776 21.1391 0.750574 20.9487 0.75 20.7499V2.74992C0.750886 2.70208 0.755905 2.6544 0.765 2.60742C2.2275 7.71492 6.3225 16.5799 17.25 17.8699Z" fill="#FF324B"/>
<path d="M13.5 0.5H4.5C4.08579 0.5 3.75 0.835786 3.75 1.25V4.25C3.75 4.66421 4.08579 5 4.5 5H13.5C13.9142 5 14.25 4.66421 14.25 4.25V1.25C14.25 0.835786 13.9142 0.5 13.5 0.5Z" fill="#FFD8BC"/>
<path d="M12.75 9.5H5.25C5.05109 9.5 4.86032 9.42098 4.71967 9.28033C4.57902 9.13968 4.5 8.94891 4.5 8.75C4.5 8.55109 4.57902 8.36032 4.71967 8.21967C4.86032 8.07902 5.05109 8 5.25 8H12.75C12.9489 8 13.1397 8.07902 13.2803 8.21967C13.421 8.36032 13.5 8.55109 13.5 8.75C13.5 8.94891 13.421 9.13968 13.2803 9.28033C13.1397 9.42098 12.9489 9.5 12.75 9.5Z" fill="#FFD8BC"/>
<path d="M12.75 15.5H5.25C5.05109 15.5 4.86032 15.421 4.71967 15.2803C4.57902 15.1397 4.5 14.9489 4.5 14.75C4.5 14.5511 4.57902 14.3603 4.71967 14.2197C4.86032 14.079 5.05109 14 5.25 14H12.75C12.9489 14 13.1397 14.079 13.2803 14.2197C13.421 14.3603 13.5 14.5511 13.5 14.75C13.5 14.9489 13.421 15.1397 13.2803 15.2803C13.1397 15.421 12.9489 15.5 12.75 15.5Z" fill="#FFD8BC"/>
<path d="M12.75 18.5H5.25C5.05109 18.5 4.86032 18.421 4.71967 18.2803C4.57902 18.1397 4.5 17.9489 4.5 17.75C4.5 17.5511 4.57902 17.3603 4.71967 17.2197C4.86032 17.079 5.05109 17 5.25 17H12.75C12.9489 17 13.1397 17.079 13.2803 17.2197C13.421 17.3603 13.5 17.5511 13.5 17.75C13.5 17.9489 13.421 18.1397 13.2803 18.2803C13.1397 18.421 12.9489 18.5 12.75 18.5Z" fill="#FFA665"/>
<path d="M12.75 12.5H5.25C5.05109 12.5 4.86032 12.421 4.71967 12.2803C4.57902 12.1397 4.5 11.9489 4.5 11.75C4.5 11.5511 4.57902 11.3603 4.71967 11.2197C4.86032 11.079 5.05109 11 5.25 11H12.75C12.9489 11 13.1397 11.079 13.2803 11.2197C13.421 11.3603 13.5 11.5511 13.5 11.75C13.5 11.9489 13.421 12.1397 13.2803 12.2803C13.1397 12.421 12.9489 12.5 12.75 12.5Z" fill="#FFD8BC"/>
<path d="M9.99685 15.5C9.23784 15.0549 8.5133 14.5535 7.82935 14L9.99685 15.5Z" fill="#FFA665"/>
<path d="M6.21802 12.5005H5.25052C5.07777 12.5002 4.91043 12.4403 4.77678 12.3308C4.64312 12.2214 4.55135 12.0691 4.51696 11.8998C4.48258 11.7306 4.50768 11.5546 4.58804 11.4017C4.6684 11.2487 4.79909 11.1282 4.95802 11.0605C5.35115 11.5634 5.77179 12.0441 6.21802 12.5005Z" fill="#FFA665"/>
<path d="M9.9975 15.502H5.25C5.05109 15.502 4.86032 15.4229 4.71967 15.2823C4.57902 15.1416 4.5 14.9509 4.5 14.752C4.5 14.553 4.57902 14.3623 4.71967 14.2216C4.86032 14.081 5.05109 14.002 5.25 14.002H7.83C8.51396 14.5555 9.23849 15.0569 9.9975 15.502Z" fill="#FFA665"/>
</svg>
