<svg width="24" height="24" viewBox="0 0 24 24" fill="none" xmlns="http://www.w3.org/2000/svg">
<path d="M19.5 3H16.5C16.3011 3 16.1103 3.07902 15.9697 3.21967C15.829 3.36032 15.75 3.55109 15.75 3.75V4.5H8.25V3.75C8.25 3.55109 8.17098 3.36032 8.03033 3.21967C7.88968 3.07902 7.69891 3 7.5 3H4.5C4.30109 3 4.11032 3.07902 3.96967 3.21967C3.82902 3.36032 3.75 3.55109 3.75 3.75V21.75C3.75 21.9489 3.82902 22.1397 3.96967 22.2803C4.11032 22.421 4.30109 22.5 4.5 22.5H19.5C19.6989 22.5 19.8897 22.421 20.0303 22.2803C20.171 22.1397 20.25 21.9489 20.25 21.75V3.75C20.25 3.55109 20.171 3.36032 20.0303 3.21967C19.8897 3.07902 19.6989 3 19.5 3Z" fill="#E6ECFF"/>
<path d="M20.25 18.8699V21.7499C20.2494 21.9487 20.1702 22.1391 20.0297 22.2796C19.8892 22.4201 19.6987 22.4993 19.5 22.4999H4.5C4.30126 22.4993 4.11083 22.4201 3.9703 22.2796C3.82978 22.1391 3.75057 21.9487 3.75 21.7499V3.74992C3.75089 3.70208 3.75591 3.6544 3.765 3.60742C5.2275 8.71492 9.3225 17.5799 20.25 18.8699Z" fill="#B6C5E1"/>
<path d="M16.5 1.5H7.5C7.08579 1.5 6.75 1.83579 6.75 2.25V5.25C6.75 5.66421 7.08579 6 7.5 6H16.5C16.9142 6 17.25 5.66421 17.25 5.25V2.25C17.25 1.83579 16.9142 1.5 16.5 1.5Z" fill="#4294FF"/>
<path d="M15.75 10.5H8.25C8.05109 10.5 7.86032 10.421 7.71967 10.2803C7.57902 10.1397 7.5 9.94891 7.5 9.75C7.5 9.55109 7.57902 9.36032 7.71967 9.21967C7.86032 9.07902 8.05109 9 8.25 9H15.75C15.9489 9 16.1397 9.07902 16.2803 9.21967C16.421 9.36032 16.5 9.55109 16.5 9.75C16.5 9.94891 16.421 10.1397 16.2803 10.2803C16.1397 10.421 15.9489 10.5 15.75 10.5Z" fill="#4294FF"/>
<path d="M15.75 16.5H8.25C8.05109 16.5 7.86032 16.421 7.71967 16.2803C7.57902 16.1397 7.5 15.9489 7.5 15.75C7.5 15.5511 7.57902 15.3603 7.71967 15.2197C7.86032 15.079 8.05109 15 8.25 15H15.75C15.9489 15 16.1397 15.079 16.2803 15.2197C16.421 15.3603 16.5 15.5511 16.5 15.75C16.5 15.9489 16.421 16.1397 16.2803 16.2803C16.1397 16.421 15.9489 16.5 15.75 16.5Z" fill="#4294FF"/>
<path d="M15.75 19.5H8.25C8.05109 19.5 7.86032 19.421 7.71967 19.2803C7.57902 19.1397 7.5 18.9489 7.5 18.75C7.5 18.5511 7.57902 18.3603 7.71967 18.2197C7.86032 18.079 8.05109 18 8.25 18H15.75C15.9489 18 16.1397 18.079 16.2803 18.2197C16.421 18.3603 16.5 18.5511 16.5 18.75C16.5 18.9489 16.421 19.1397 16.2803 19.2803C16.1397 19.421 15.9489 19.5 15.75 19.5Z" fill="#3C7ED5"/>
<path d="M15.75 13.5H8.25C8.05109 13.5 7.86032 13.421 7.71967 13.2803C7.57902 13.1397 7.5 12.9489 7.5 12.75C7.5 12.5511 7.57902 12.3603 7.71967 12.2197C7.86032 12.079 8.05109 12 8.25 12H15.75C15.9489 12 16.1397 12.079 16.2803 12.2197C16.421 12.3603 16.5 12.5511 16.5 12.75C16.5 12.9489 16.421 13.1397 16.2803 13.2803C16.1397 13.421 15.9489 13.5 15.75 13.5Z" fill="#4294FF"/>
<path d="M12.9968 16.5C12.2378 16.0549 11.5133 15.5535 10.8293 15L12.9968 16.5Z" fill="#4294FF"/>
<path d="M9.21802 13.5005H8.25052C8.07777 13.5002 7.91043 13.4403 7.77678 13.3308C7.64312 13.2214 7.55135 13.0691 7.51696 12.8998C7.48258 12.7306 7.50768 12.5546 7.58804 12.4017C7.6684 12.2487 7.79909 12.1282 7.95802 12.0605C8.35115 12.5634 8.77179 13.0441 9.21802 13.5005Z" fill="#3C7ED5"/>
<path d="M12.9975 16.502H8.25C8.05109 16.502 7.86032 16.4229 7.71967 16.2823C7.57902 16.1416 7.5 15.9509 7.5 15.752C7.5 15.553 7.57902 15.3623 7.71967 15.2216C7.86032 15.081 8.05109 15.002 8.25 15.002H10.83C11.514 15.5555 12.2385 16.0569 12.9975 16.502Z" fill="#3C7ED5"/>
<path d="M22.7883 23H11.2117C10.7746 23 10.3827 22.7617 10.1634 22.3626C9.94871 21.9715 9.94543 21.5103 10.1544 21.0971L15.9427 9.65439C16.15 9.24463 16.5453 9 17 9C17.4547 9 17.85 9.24463 18.0573 9.65439L23.8456 21.097C24.0546 21.5103 24.0513 21.9716 23.8365 22.3626C23.6173 22.7617 23.2255 23 22.7883 23Z" fill="#FF847C"/>
<path d="M23.8451 21.097L18.0568 9.65439C17.8495 9.24463 17.4543 9 16.9995 9V23H22.7878C23.225 23 23.6169 22.7617 23.8361 22.3626C24.0508 21.9716 24.0541 21.5103 23.8451 21.097Z" fill="#FF4C4C"/>
<path d="M16.9965 21.1298C16.3932 21.1298 15.9023 20.6118 15.9023 19.9751C15.9023 19.3383 16.3932 18.8203 16.9965 18.8203C17.5999 18.8203 18.0907 19.3383 18.0907 19.9751C18.0907 20.6118 17.5999 21.1298 16.9965 21.1298Z" fill="#FFF3F3"/>
<path d="M16.9966 17.6601C16.3932 17.6601 15.9023 17.1421 15.9023 16.5054V14.0083C15.9023 13.3715 16.3932 12.8535 16.9965 12.8535C17.5999 12.8535 18.0907 13.3715 18.0907 14.0083V16.5054C18.0907 17.1421 17.5999 17.6601 16.9966 17.6601Z" fill="#FFF3F3"/>
<path d="M17 12.8516H17V17.6582H17.0001C17.6034 17.6582 18.0942 17.1402 18.0942 16.5034V14.0063C18.0942 13.3696 17.6034 12.8516 17 12.8516Z" fill="#DAD0CB"/>
<path d="M17 18.8184H17V21.1278H17C17.6034 21.1278 18.0942 20.6098 18.0942 19.9731C18.0942 19.3364 17.6034 18.8184 17 18.8184Z" fill="#DAD0CB"/>
</svg>
