<svg width="22" height="22" viewBox="0 0 22 22" fill="none" xmlns="http://www.w3.org/2000/svg">
<path d="M6.5 14.25H3.5C3.08579 14.25 2.75 14.5858 2.75 15V20.25C2.75 20.6642 3.08579 21 3.5 21H6.5C6.91421 21 7.25 20.6642 7.25 20.25V15C7.25 14.5858 6.91421 14.25 6.5 14.25Z" fill="#E6ECFF"/>
<path d="M12.5 10.5H9.5C9.08579 10.5 8.75 10.8358 8.75 11.25V20.25C8.75 20.6642 9.08579 21 9.5 21H12.5C12.9142 21 13.25 20.6642 13.25 20.25V11.25C13.25 10.8358 12.9142 10.5 12.5 10.5Z" fill="#E6ECFF"/>
<path d="M18.5 6H15.5C15.0858 6 14.75 6.33579 14.75 6.75V20.25C14.75 20.6642 15.0858 21 15.5 21H18.5C18.9142 21 19.25 20.6642 19.25 20.25V6.75C19.25 6.33579 18.9142 6 18.5 6Z" fill="#E6ECFF"/>
<path d="M16.1922 0.46365C16.1353 0.326807 16.0392 0.209813 15.916 0.127334C15.7929 0.0448542 15.6481 0.00055904 15.4999 0H12.4999C12.301 0 12.1103 0.0790176 11.9696 0.21967C11.829 0.360322 11.7499 0.551088 11.7499 0.75C11.7499 0.948912 11.829 1.13968 11.9696 1.28033C12.1103 1.42098 12.301 1.5 12.4999 1.5H13.6894L4.46969 10.7197C4.39806 10.7889 4.34092 10.8717 4.30161 10.9632C4.26231 11.0547 4.24162 11.1531 4.24075 11.2527C4.23989 11.3523 4.25886 11.451 4.29657 11.5432C4.33428 11.6354 4.38997 11.7191 4.46039 11.7895C4.53081 11.86 4.61455 11.9157 4.70672 11.9534C4.7989 11.9911 4.89766 12.0101 4.99724 12.0092C5.09682 12.0083 5.19524 11.9876 5.28674 11.9483C5.37824 11.909 5.461 11.8519 5.53019 11.7803L14.7499 2.56058V3.75C14.7499 3.94891 14.829 4.13968 14.9696 4.28033C15.1103 4.42098 15.301 4.5 15.4999 4.5C15.6988 4.5 15.8896 4.42098 16.0303 4.28033C16.1709 4.13968 16.2499 3.94891 16.2499 3.75V0.75C16.2497 0.651686 16.23 0.554389 16.1922 0.46365Z" fill="#4294FF"/>
<path d="M7.25 16.6484V20.2484C7.24943 20.4472 7.17022 20.6376 7.0297 20.7781C6.88917 20.9187 6.69874 20.9979 6.5 20.9984H3.5C3.30126 20.9979 3.11083 20.9187 2.9703 20.7781C2.82978 20.6376 2.75057 20.4472 2.75 20.2484V16.8059C4.25183 16.8522 5.75508 16.7996 7.25 16.6484Z" fill="#B7C6E2"/>
<path d="M8.75 16.4709C10.2785 16.2456 11.7842 15.8867 13.25 15.3984V20.2509C13.2494 20.4497 13.1702 20.6401 13.0297 20.7806C12.8892 20.9212 12.6987 21.0004 12.5 21.0009H9.5C9.30126 21.0004 9.11083 20.9212 8.9703 20.7806C8.82978 20.6401 8.75057 20.4497 8.75 20.2509V16.4709Z" fill="#B7C6E2"/>
<path d="M19.25 12.0684V20.2509C19.2494 20.4496 19.1702 20.64 19.0297 20.7806C18.8892 20.9211 18.6987 21.0003 18.5 21.0009H15.5C15.3013 21.0003 15.1108 20.9211 14.9703 20.7806C14.8298 20.64 14.7506 20.4496 14.75 20.2509V14.8284C16.3837 14.1466 17.9018 13.2156 19.25 12.0684Z" fill="#B7C6E2"/>
<path d="M20.75 21H1.25C1.05109 21 0.860322 20.921 0.71967 20.7803C0.579018 20.6397 0.5 20.4489 0.5 20.25C0.5 20.0511 0.579018 19.8603 0.71967 19.7197C0.860322 19.579 1.05109 19.5 1.25 19.5H20.75C20.9489 19.5 21.1397 19.579 21.2803 19.7197C21.421 19.8603 21.5 20.0511 21.5 20.25C21.5 20.4489 21.421 20.6397 21.2803 20.7803C21.1397 20.921 20.9489 21 20.75 21Z" fill="#2965ED"/>
</svg>
