<?xml version="1.0" encoding="utf-8"?>
<!-- Generator: Adobe Illustrator 24.0.3, SVG Export Plug-In . SVG Version: 6.00 Build 0)  -->
<svg version="1.1" id="Layer_1" xmlns="http://www.w3.org/2000/svg" xmlns:xlink="http://www.w3.org/1999/xlink" x="0px" y="0px"
	 viewBox="0 0 24 25" style="enable-background:new 0 0 24 25;" xml:space="preserve">
<style type="text/css">
	.st0{fill:#E6ECFF;}
	.st1{fill:#B6C5E1;}
	.st2{fill:#4294FF;}
	.st3{fill:#3C7ED5;}
	.st4{clip-path:url(#SVGID_2_);}
	.st5{fill:#FF847C;}
	.st6{fill:#FF4C4C;}
	.st7{fill:#FFBF73;}
	.st8{fill:#FF9B27;}
	.st9{fill:#575F64;}
	.st10{fill:#474F54;}
</style>
<g>
	<path class="st0" d="M19.5,3.5h-3c-0.2,0-0.4,0.1-0.5,0.2c-0.1,0.1-0.2,0.3-0.2,0.5V5H8.2V4.2c0-0.2-0.1-0.4-0.2-0.5
		C7.9,3.6,7.7,3.5,7.5,3.5h-3C4.3,3.5,4.1,3.6,4,3.7S3.8,4.1,3.8,4.2v18c0,0.2,0.1,0.4,0.2,0.5C4.1,22.9,4.3,23,4.5,23h15
		c0.2,0,0.4-0.1,0.5-0.2c0.1-0.1,0.2-0.3,0.2-0.5v-18c0-0.2-0.1-0.4-0.2-0.5C19.9,3.6,19.7,3.5,19.5,3.5z"/>
	<path class="st1" d="M20.2,19.4v2.9c0,0.2-0.1,0.4-0.2,0.5c-0.1,0.1-0.3,0.2-0.5,0.2h-15c-0.2,0-0.4-0.1-0.5-0.2
		c-0.1-0.1-0.2-0.3-0.2-0.5v-18c0,0,0-0.1,0-0.1C5.2,9.2,9.3,18.1,20.2,19.4z"/>
	<path class="st2" d="M16.5,2h-9C7.1,2,6.8,2.3,6.8,2.7v3c0,0.4,0.3,0.8,0.8,0.8h9c0.4,0,0.8-0.3,0.8-0.8v-3C17.2,2.3,16.9,2,16.5,2
		z"/>
	<path class="st2" d="M15.8,11H8.2c-0.2,0-0.4-0.1-0.5-0.2c-0.1-0.1-0.2-0.3-0.2-0.5s0.1-0.4,0.2-0.5c0.1-0.1,0.3-0.2,0.5-0.2h7.5
		c0.2,0,0.4,0.1,0.5,0.2c0.1,0.1,0.2,0.3,0.2,0.5s-0.1,0.4-0.2,0.5C16.1,10.9,15.9,11,15.8,11z"/>
	<path class="st2" d="M15.8,17H8.2c-0.2,0-0.4-0.1-0.5-0.2c-0.1-0.1-0.2-0.3-0.2-0.5s0.1-0.4,0.2-0.5c0.1-0.1,0.3-0.2,0.5-0.2h7.5
		c0.2,0,0.4,0.1,0.5,0.2c0.1,0.1,0.2,0.3,0.2,0.5s-0.1,0.4-0.2,0.5C16.1,16.9,15.9,17,15.8,17z"/>
	<path class="st3" d="M15.8,20H8.2c-0.2,0-0.4-0.1-0.5-0.2c-0.1-0.1-0.2-0.3-0.2-0.5s0.1-0.4,0.2-0.5c0.1-0.1,0.3-0.2,0.5-0.2h7.5
		c0.2,0,0.4,0.1,0.5,0.2c0.1,0.1,0.2,0.3,0.2,0.5s-0.1,0.4-0.2,0.5C16.1,19.9,15.9,20,15.8,20z"/>
	<path class="st2" d="M15.8,14H8.2c-0.2,0-0.4-0.1-0.5-0.2c-0.1-0.1-0.2-0.3-0.2-0.5s0.1-0.4,0.2-0.5c0.1-0.1,0.3-0.2,0.5-0.2h7.5
		c0.2,0,0.4,0.1,0.5,0.2c0.1,0.1,0.2,0.3,0.2,0.5s-0.1,0.4-0.2,0.5C16.1,13.9,15.9,14,15.8,14z"/>
	<path class="st2" d="M13,17c-0.8-0.4-1.5-0.9-2.2-1.5L13,17z"/>
	<path class="st3" d="M9.2,14h-1c-0.2,0-0.3-0.1-0.5-0.2c-0.1-0.1-0.2-0.3-0.3-0.4c0-0.2,0-0.3,0.1-0.5c0.1-0.2,0.2-0.3,0.4-0.3
		C8.4,13.1,8.8,13.5,9.2,14z"/>
	<path class="st3" d="M13,17H8.2c-0.2,0-0.4-0.1-0.5-0.2c-0.1-0.1-0.2-0.3-0.2-0.5c0-0.2,0.1-0.4,0.2-0.5c0.1-0.1,0.3-0.2,0.5-0.2
		h2.6C11.5,16.1,12.2,16.6,13,17z"/>
	<g>
		<defs>
			<rect id="SVGID_1_" x="10" y="10.5" width="14" height="14"/>
		</defs>
		<clipPath id="SVGID_2_">
			<use xlink:href="#SVGID_1_"  style="overflow:visible;"/>
		</clipPath>
		<g class="st4">
			<path class="st5" d="M16.6,10.5v2.1l0.2,0.3l0.2-0.3l0.3-1L17,10.5H16.6z"/>
			<path class="st6" d="M17.4,10.5H17v2.1l0.2,0.3l0.2-0.3V10.5z"/>
			<path class="st5" d="M16.6,24.5H17l0.3-1l-0.3-1l-0.2-0.3l-0.2,0.3V24.5z"/>
			<path class="st6" d="M17.4,24.5v-2.1l-0.2-0.3L17,22.4v2.1H17.4z"/>
			<path class="st5" d="M14.1,12.6l-0.4,0.3l-0.4-0.3v-2.1h0.8V12.6z"/>
			<path class="st5" d="M15.8,12.6l-0.4,0.3l-0.4-0.3v-2.1h0.8V12.6z"/>
			<path class="st6" d="M19.1,12.6l-0.4,0.3l-0.4-0.3v-2.1h0.8V12.6z"/>
			<path class="st6" d="M20.7,12.6l-0.4,0.3l-0.4-0.3v-2.1h0.8V12.6z"/>
			<path class="st6" d="M24,14.6h-2.1l-0.3-0.4l0.3-0.4H24V14.6z"/>
			<path class="st6" d="M24,16.3h-2.1l-0.3-0.4l0.3-0.4H24V16.3z"/>
			<path class="st6" d="M24,17.9h-2.1l-0.3-0.4l0.3-0.4H24V17.9z"/>
			<path class="st6" d="M24,19.6h-2.1l-0.3-0.4l0.3-0.4H24V19.6z"/>
			<path class="st6" d="M24,21.2h-2.1l-0.3-0.4l0.3-0.4H24V21.2z"/>
			<path class="st6" d="M19.1,24.5h-0.8v-2.1l0.4-0.3l0.4,0.3V24.5z"/>
			<path class="st6" d="M20.7,24.5h-0.8v-2.1l0.4-0.3l0.4,0.3V24.5z"/>
			<path class="st5" d="M14.1,24.5h-0.8v-2.1l0.4-0.4l0.4,0.4V24.5z"/>
			<path class="st5" d="M15.8,24.5h-0.8v-2.1l0.4-0.4l0.4,0.4V24.5z"/>
			<path class="st5" d="M12.1,14.6H10v-0.8h2.1l0.3,0.4L12.1,14.6z"/>
			<path class="st5" d="M12.1,16.3H10v-0.8h2.1l0.3,0.4L12.1,16.3z"/>
			<path class="st5" d="M12.1,17.9H10v-0.8h2.1l0.3,0.4L12.1,17.9z"/>
			<path class="st5" d="M12.1,19.6H10v-0.8h2.1l0.3,0.4L12.1,19.6z"/>
			<path class="st5" d="M12.1,21.2H10v-0.8h2.1l0.3,0.4L12.1,21.2z"/>
			<path class="st7" d="M12.1,12.6v9.9H17l0.3-4.8L17,12.6H12.1z"/>
			<path class="st8" d="M17,12.6h4.9v9.9H17V12.6z"/>
			<path class="st9" d="M14.1,14.6v5.8H17l0.3-2.9L17,14.6H14.1z"/>
			<path class="st10" d="M17,14.6h2.9v5.8H17V14.6z"/>
			<path class="st5" d="M14.9,15.4v4.1H17l0.3-2.1L17,15.4H14.9z"/>
			<path class="st6" d="M17,15.4h2.1v4.1H17V15.4z"/>
			<path class="st9" d="M16.2,17.5c0,0.5,0.4,0.8,0.8,0.8l0.3-0.8L17,16.7C16.5,16.7,16.2,17,16.2,17.5z"/>
			<path class="st10" d="M17,16.7v1.6c0.5,0,0.8-0.4,0.8-0.8C17.8,17,17.5,16.7,17,16.7z"/>
		</g>
	</g>
</g>
</svg>
