<svg width="24" height="24" viewBox="0 0 24 24" fill="none" xmlns="http://www.w3.org/2000/svg">
<g clip-path="url(#clip0)">
<path d="M19.5 3H16.5C16.3011 3 16.1103 3.07902 15.9697 3.21967C15.829 3.36032 15.75 3.55109 15.75 3.75V4.5H8.25V3.75C8.25 3.55109 8.17098 3.36032 8.03033 3.21967C7.88968 3.07902 7.69891 3 7.5 3H4.5C4.30109 3 4.11032 3.07902 3.96967 3.21967C3.82902 3.36032 3.75 3.55109 3.75 3.75V21.75C3.75 21.9489 3.82902 22.1397 3.96967 22.2803C4.11032 22.421 4.30109 22.5 4.5 22.5H19.5C19.6989 22.5 19.8897 22.421 20.0303 22.2803C20.171 22.1397 20.25 21.9489 20.25 21.75V3.75C20.25 3.55109 20.171 3.36032 20.0303 3.21967C19.8897 3.07902 19.6989 3 19.5 3Z" fill="#E6ECFF"/>
<path d="M20.25 18.8699V21.7499C20.2494 21.9487 20.1702 22.1391 20.0297 22.2796C19.8892 22.4201 19.6987 22.4993 19.5 22.4999H4.5C4.30126 22.4993 4.11083 22.4201 3.9703 22.2796C3.82978 22.1391 3.75057 21.9487 3.75 21.7499V3.74992C3.75089 3.70208 3.75591 3.6544 3.765 3.60742C5.2275 8.71492 9.3225 17.5799 20.25 18.8699Z" fill="#B6C5E1"/>
<path d="M16.5 1.5H7.5C7.08579 1.5 6.75 1.83579 6.75 2.25V5.25C6.75 5.66421 7.08579 6 7.5 6H16.5C16.9142 6 17.25 5.66421 17.25 5.25V2.25C17.25 1.83579 16.9142 1.5 16.5 1.5Z" fill="#4294FF"/>
<path d="M15.75 10.5H8.25C8.05109 10.5 7.86032 10.421 7.71967 10.2803C7.57902 10.1397 7.5 9.94891 7.5 9.75C7.5 9.55109 7.57902 9.36032 7.71967 9.21967C7.86032 9.07902 8.05109 9 8.25 9H15.75C15.9489 9 16.1397 9.07902 16.2803 9.21967C16.421 9.36032 16.5 9.55109 16.5 9.75C16.5 9.94891 16.421 10.1397 16.2803 10.2803C16.1397 10.421 15.9489 10.5 15.75 10.5Z" fill="#4294FF"/>
<path d="M15.75 16.5H8.25C8.05109 16.5 7.86032 16.421 7.71967 16.2803C7.57902 16.1397 7.5 15.9489 7.5 15.75C7.5 15.5511 7.57902 15.3603 7.71967 15.2197C7.86032 15.079 8.05109 15 8.25 15H15.75C15.9489 15 16.1397 15.079 16.2803 15.2197C16.421 15.3603 16.5 15.5511 16.5 15.75C16.5 15.9489 16.421 16.1397 16.2803 16.2803C16.1397 16.421 15.9489 16.5 15.75 16.5Z" fill="#4294FF"/>
<path d="M15.75 19.5H8.25C8.05109 19.5 7.86032 19.421 7.71967 19.2803C7.57902 19.1397 7.5 18.9489 7.5 18.75C7.5 18.5511 7.57902 18.3603 7.71967 18.2197C7.86032 18.079 8.05109 18 8.25 18H15.75C15.9489 18 16.1397 18.079 16.2803 18.2197C16.421 18.3603 16.5 18.5511 16.5 18.75C16.5 18.9489 16.421 19.1397 16.2803 19.2803C16.1397 19.421 15.9489 19.5 15.75 19.5Z" fill="#3C7ED5"/>
<path d="M15.75 13.5H8.25C8.05109 13.5 7.86032 13.421 7.71967 13.2803C7.57902 13.1397 7.5 12.9489 7.5 12.75C7.5 12.5511 7.57902 12.3603 7.71967 12.2197C7.86032 12.079 8.05109 12 8.25 12H15.75C15.9489 12 16.1397 12.079 16.2803 12.2197C16.421 12.3603 16.5 12.5511 16.5 12.75C16.5 12.9489 16.421 13.1397 16.2803 13.2803C16.1397 13.421 15.9489 13.5 15.75 13.5Z" fill="#4294FF"/>
<path d="M12.9968 16.5C12.2378 16.0549 11.5133 15.5535 10.8293 15L12.9968 16.5Z" fill="#4294FF"/>
<path d="M9.21802 13.5005H8.25052C8.07777 13.5002 7.91043 13.4403 7.77678 13.3308C7.64312 13.2214 7.55135 13.0691 7.51696 12.8998C7.48258 12.7306 7.50768 12.5546 7.58804 12.4017C7.6684 12.2487 7.79909 12.1282 7.95802 12.0605C8.35115 12.5634 8.77179 13.0441 9.21802 13.5005Z" fill="#3C7ED5"/>
<path d="M12.9975 16.502H8.25C8.05109 16.502 7.86032 16.4229 7.71967 16.2823C7.57902 16.1416 7.5 15.9509 7.5 15.752C7.5 15.553 7.57902 15.3623 7.71967 15.2216C7.86032 15.081 8.05109 15.002 8.25 15.002H10.83C11.514 15.5555 12.2385 16.0569 12.9975 16.502Z" fill="#3C7ED5"/>
<g clip-path="url(#clip1)">
<path d="M19.0303 22.3363C19.0303 21.4322 18.2948 20.6992 17.3874 20.6992C16.4799 20.6992 15.7444 21.4322 15.7444 22.3363C15.7444 23.2405 16.4799 23.9734 17.3874 23.9734C18.2948 23.9734 19.0303 23.2405 19.0303 22.3363Z" fill="#F7C92B"/>
<path d="M17.3882 20.6992C17.2221 20.6992 17.0618 20.724 16.9106 20.7697C17.5851 20.9735 18.0761 21.5976 18.0761 22.3363C18.0761 23.0749 17.5851 23.6991 16.9106 23.9029C17.0618 23.9486 17.2221 23.9734 17.3882 23.9734C18.2956 23.9734 19.0311 23.2405 19.0311 22.3363C19.0311 21.4322 18.2956 20.6992 17.3882 20.6992Z" fill="#F2B51D"/>
<path d="M17.5807 12.7806C17.053 12.8862 16.5394 12.5457 16.4334 12.0198C16.3273 11.4941 16.6691 10.9823 17.1967 10.8766C17.7243 10.771 18.238 11.1115 18.3441 11.6373C18.4501 12.1631 18.1083 12.6749 17.5807 12.7806Z" fill="#F7C92B"/>
<path d="M18.3433 11.6373C18.2373 11.1115 17.7236 10.771 17.1959 10.8766C17.1468 10.8865 17.0994 10.8999 17.0537 10.9164C17.3617 11.0287 17.6056 11.2934 17.675 11.6373C17.7712 12.1142 17.4989 12.5795 17.0538 12.7408C17.2167 12.8002 17.3975 12.8171 17.5799 12.7806C18.1075 12.6749 18.4493 12.1631 18.3433 11.6373Z" fill="#F2B51D"/>
<path d="M21.4568 22.0616H13.3181C12.5898 22.0616 11.9995 21.4734 11.9995 20.7478C11.9995 20.3461 12.182 19.966 12.4958 19.7138L12.7572 19.5036C13.362 19.0176 13.7137 18.285 13.7137 17.5108V16.13C13.7137 14.0928 15.371 12.4414 17.4155 12.4414C19.4599 12.4414 21.1173 14.0928 21.1173 16.13V17.5363C21.1173 18.2959 21.4558 19.0163 22.0414 19.5027L22.296 19.7142C22.5998 19.9666 22.7754 20.3404 22.7754 20.7346V20.7478C22.7754 21.4734 22.1851 22.0616 21.4568 22.0616Z" fill="#F7E249"/>
<path d="M22.2951 19.7124L22.0405 19.5009C21.4549 19.0143 21.1164 18.294 21.1164 17.5344V16.1281C21.1164 14.091 19.459 12.4395 17.4146 12.4395C17.0523 12.4395 16.7024 12.4916 16.3716 12.5882C17.9082 13.037 19.0304 14.4519 19.0304 16.1281V17.5344C19.0304 18.294 19.3689 19.0143 19.9544 19.5009L20.2091 19.7124C20.5128 19.9648 20.6886 20.3386 20.6886 20.7327V20.746C20.6886 21.4715 20.0983 22.0598 19.37 22.0598H21.456C22.1842 22.0598 22.7745 21.4715 22.7745 20.746V20.7327C22.7745 20.3386 22.5989 19.9648 22.2951 19.7124Z" fill="#F7C92B"/>
<path d="M24.044 13.1404C24.044 11.392 22.6216 9.97461 20.8669 9.97461C19.1122 9.97461 17.6897 11.392 17.6897 13.1404C17.6897 14.8888 19.1122 16.3062 20.8669 16.3062C22.6216 16.3062 24.044 14.8888 24.044 13.1404Z" fill="#FC476E"/>
<path d="M21.7179 10.0898C22.5282 10.6635 23.0567 11.6064 23.0567 12.6722C23.0567 14.4206 21.6343 15.838 19.8796 15.838C19.5842 15.838 19.2984 15.7977 19.0271 15.7225C19.5459 16.09 20.1804 16.306 20.8654 16.306C22.62 16.306 24.0425 14.8886 24.0425 13.1402C24.0425 11.686 23.0586 10.4611 21.7179 10.0898Z" fill="#CC2B5A"/>
</g>
</g>
<defs>
<clipPath id="clip0">
<rect width="24" height="24" fill="white"/>
</clipPath>
<clipPath id="clip1">
<rect width="14" height="14" fill="white" transform="translate(11 10)"/>
</clipPath>
</defs>
</svg>
