<svg width="24" height="25" viewBox="0 0 24 25" fill="none" xmlns="http://www.w3.org/2000/svg">
<path d="M15.1195 2.94141H12.2396C12.0487 2.94141 11.8656 3.01726 11.7305 3.15228C11.5955 3.28731 11.5197 3.47043 11.5197 3.66138V4.38136H4.31987V3.66138C4.31987 3.47043 4.24402 3.28731 4.10899 3.15228C3.97397 3.01726 3.79084 2.94141 3.59989 2.94141H0.719978C0.529028 2.94141 0.345899 3.01726 0.210877 3.15228C0.0758548 3.28731 0 3.47043 0 3.66138V20.9409C0 21.1318 0.0758548 21.3149 0.210877 21.45C0.345899 21.585 0.529028 21.6608 0.719978 21.6608H15.1195C15.3105 21.6608 15.4936 21.585 15.6286 21.45C15.7637 21.3149 15.8395 21.1318 15.8395 20.9409V3.66138C15.8395 3.47043 15.7637 3.28731 15.6286 3.15228C15.4936 3.01726 15.3105 2.94141 15.1195 2.94141Z" fill="#E6ECFF"/>
<path d="M15.8395 18.1769V20.9417C15.839 21.1324 15.7629 21.3153 15.628 21.4502C15.4931 21.5851 15.3103 21.6611 15.1195 21.6616H0.719978C0.529198 21.6611 0.346388 21.5851 0.211485 21.4502C0.0765824 21.3153 0.000550871 21.1324 0 20.9417V3.66219C0.000850907 3.61626 0.00566867 3.57049 0.0143996 3.52539C1.41836 8.42844 5.34944 16.9386 15.8395 18.1769Z" fill="#B6C5E1"/>
<path d="M12.2396 1.5H3.59986C3.20223 1.5 2.87988 1.82235 2.87988 2.21998V5.09989C2.87988 5.49752 3.20223 5.81987 3.59986 5.81987H12.2396C12.6372 5.81987 12.9596 5.49752 12.9596 5.09989V2.21998C12.9596 1.82235 12.6372 1.5 12.2396 1.5Z" fill="#4294FF"/>
<path d="M11.5203 10.1411H4.32056C4.12961 10.1411 3.94648 10.0653 3.81146 9.93025C3.67644 9.79523 3.60059 9.6121 3.60059 9.42115C3.60059 9.2302 3.67644 9.04707 3.81146 8.91205C3.94648 8.77703 4.12961 8.70117 4.32056 8.70117H11.5203C11.7113 8.70117 11.8944 8.77703 12.0294 8.91205C12.1645 9.04707 12.2403 9.2302 12.2403 9.42115C12.2403 9.6121 12.1645 9.79523 12.0294 9.93025C11.8944 10.0653 11.7113 10.1411 11.5203 10.1411Z" fill="#4294FF"/>
<path d="M11.5203 15.9009H4.32056C4.12961 15.9009 3.94648 15.825 3.81146 15.69C3.67644 15.555 3.60059 15.3719 3.60059 15.1809C3.60059 14.99 3.67644 14.8068 3.81146 14.6718C3.94648 14.5368 4.12961 14.4609 4.32056 14.4609H11.5203C11.7113 14.4609 11.8944 14.5368 12.0294 14.6718C12.1645 14.8068 12.2403 14.99 12.2403 15.1809C12.2403 15.3719 12.1645 15.555 12.0294 15.69C11.8944 15.825 11.7113 15.9009 11.5203 15.9009Z" fill="#4294FF"/>
<path d="M11.5203 18.7798H4.32056C4.12961 18.7798 3.94648 18.7039 3.81146 18.5689C3.67644 18.4339 3.60059 18.2508 3.60059 18.0598C3.60059 17.8689 3.67644 17.6857 3.81146 17.5507C3.94648 17.4157 4.12961 17.3398 4.32056 17.3398H11.5203C11.7113 17.3398 11.8944 17.4157 12.0294 17.5507C12.1645 17.6857 12.2403 17.8689 12.2403 18.0598C12.2403 18.2508 12.1645 18.4339 12.0294 18.5689C11.8944 18.7039 11.7113 18.7798 11.5203 18.7798Z" fill="#3C7ED5"/>
<path d="M11.5203 13.022H4.32056C4.12961 13.022 3.94648 12.9461 3.81146 12.8111C3.67644 12.6761 3.60059 12.493 3.60059 12.302C3.60059 12.1111 3.67644 11.9279 3.81146 11.7929C3.94648 11.6579 4.12961 11.582 4.32056 11.582H11.5203C11.7113 11.582 11.8944 11.6579 12.0294 11.7929C12.1645 11.9279 12.2403 12.1111 12.2403 12.302C12.2403 12.493 12.1645 12.6761 12.0294 12.8111C11.8944 12.9461 11.7113 13.022 11.5203 13.022Z" fill="#4294FF"/>
<path d="M8.87566 15.9009C8.14703 15.4736 7.4515 14.9923 6.79492 14.4609L8.87566 15.9009Z" fill="#4294FF"/>
<path d="M5.24796 13.0171H4.31919C4.15335 13.0168 3.99271 12.9592 3.86441 12.8542C3.73611 12.7491 3.64801 12.603 3.615 12.4405C3.58198 12.2779 3.60609 12.109 3.68323 11.9622C3.76037 11.8154 3.88583 11.6998 4.0384 11.6348C4.41579 12.1175 4.81959 12.579 5.24796 13.0171Z" fill="#3C7ED5"/>
<path d="M8.87803 15.9009H4.32056C4.12961 15.9009 3.94648 15.825 3.81146 15.69C3.67644 15.555 3.60059 15.3719 3.60059 15.1809C3.60059 14.99 3.67644 14.8068 3.81146 14.6718C3.94648 14.5368 4.12961 14.4609 4.32056 14.4609H6.79729C7.45387 14.9923 8.1494 15.4736 8.87803 15.9009Z" fill="#3C7ED5"/>
<path d="M10.5586 9.14384V22.4578C10.5586 22.626 10.626 22.7872 10.746 22.9061C10.8661 23.025 11.0288 23.0918 11.1986 23.0918H23.3582C23.5279 23.0918 23.6907 23.025 23.8107 22.9061C23.9308 22.7872 23.9982 22.626 23.9982 22.4578V5.97384C23.9982 5.8057 23.9308 5.64444 23.8107 5.52554C23.6907 5.40664 23.5279 5.33984 23.3582 5.33984H14.3985L10.5586 9.14384Z" fill="#FF8C8C"/>
<path d="M14.3985 9.14453L10.5586 9.77853V9.14453H14.3985Z" fill="#DB5C5C"/>
<path d="M23.9982 20.6415V22.4611C23.9977 22.6291 23.9301 22.7901 23.8102 22.9089C23.6903 23.0276 23.5278 23.0946 23.3582 23.0951H11.1986C11.029 23.0946 10.8665 23.0276 10.7466 22.9089C10.6267 22.7901 10.5591 22.6291 10.5586 22.4611V9.14709L12.9073 6.82031C13.1121 7.56209 13.3553 8.34191 13.6369 9.14709C13.6479 9.18856 13.6629 9.2289 13.6817 9.26755C13.6945 9.29925 13.7073 9.33729 13.7201 9.36899C15.3904 14.0352 18.4752 19.2974 23.9982 20.6415Z" fill="#FF566B"/>
<path d="M21.4396 9.78125H19.5196C19.1662 9.78125 18.8796 10.0651 18.8796 10.4152V12.3172C18.8796 12.6674 19.1662 12.9512 19.5196 12.9512H21.4396C21.793 12.9512 22.0795 12.6674 22.0795 12.3172V10.4152C22.0795 10.0651 21.793 9.78125 21.4396 9.78125Z" fill="#FFD8BC"/>
<path d="M16.9596 12.3051H13.1197C12.95 12.3051 12.7872 12.2383 12.6672 12.1194C12.5472 12.0005 12.4797 11.8393 12.4797 11.6711C12.4797 11.503 12.5472 11.3417 12.6672 11.2228C12.7872 11.1039 12.95 11.0371 13.1197 11.0371H16.9596C17.1293 11.0371 17.2921 11.1039 17.4121 11.2228C17.5322 11.3417 17.5996 11.503 17.5996 11.6711C17.5996 11.8393 17.5322 12.0005 17.4121 12.1194C17.2921 12.2383 17.1293 12.3051 16.9596 12.3051Z" fill="#FFD8BC"/>
<path d="M21.4396 13.5801H19.5196C19.1662 13.5801 18.8796 13.8639 18.8796 14.2141V16.1161C18.8796 16.4662 19.1662 16.7501 19.5196 16.7501H21.4396C21.793 16.7501 22.0795 16.4662 22.0795 16.1161V14.2141C22.0795 13.8639 21.793 13.5801 21.4396 13.5801Z" fill="#FFD8BC"/>
<path d="M16.9596 16.1215H13.1197C12.95 16.1215 12.7872 16.0547 12.6672 15.9358C12.5472 15.8169 12.4797 15.6557 12.4797 15.4875C12.4797 15.3194 12.5472 15.1581 12.6672 15.0392C12.7872 14.9203 12.95 14.8535 13.1197 14.8535H16.9596C17.1293 14.8535 17.2921 14.9203 17.4121 15.0392C17.5322 15.1581 17.5996 15.3194 17.5996 15.4875C17.5996 15.6557 17.5322 15.8169 17.4121 15.9358C17.2921 16.0547 17.1293 16.1215 16.9596 16.1215Z" fill="#FFD8BC"/>
<path d="M21.4396 17.3887H19.5196C19.1662 17.3887 18.8796 17.6725 18.8796 18.0227V19.9247C18.8796 20.2748 19.1662 20.5587 19.5196 20.5587H21.4396C21.793 20.5587 22.0795 20.2748 22.0795 19.9247V18.0227C22.0795 17.6725 21.793 17.3887 21.4396 17.3887Z" fill="#FFD8BC"/>
<path d="M16.9596 19.9223H13.1197C12.95 19.9223 12.7872 19.8555 12.6672 19.7366C12.5472 19.6177 12.4797 19.4564 12.4797 19.2883C12.4797 19.1201 12.5472 18.9589 12.6672 18.84C12.7872 18.7211 12.95 18.6543 13.1197 18.6543H16.9596C17.1293 18.6543 17.2921 18.7211 17.4121 18.84C17.5322 18.9589 17.5996 19.1201 17.5996 19.2883C17.5996 19.4564 17.5322 19.6177 17.4121 19.7366C17.2921 19.8555 17.1293 19.9223 16.9596 19.9223Z" fill="#FFA665"/>
<path d="M10.5586 9.14384H14.3985V5.33984L10.5586 9.14384Z" fill="#FF4B4B"/>
<path d="M13.6369 9.14709H10.5586L12.9073 6.82031C13.1121 7.56209 13.3489 8.34191 13.6369 9.14709Z" fill="#FF0000"/>
<path d="M14.9565 12.3051H13.1197C12.95 12.3051 12.7872 12.2383 12.6672 12.1194C12.5472 12.0005 12.4797 11.8393 12.4797 11.6711C12.4797 11.503 12.5472 11.3417 12.6672 11.2228C12.7872 11.1039 12.95 11.0371 13.1197 11.0371H14.3741C14.5533 11.4619 14.7453 11.8867 14.9565 12.3051Z" fill="#FFA665"/>
<path d="M17.254 16.0454C17.1645 16.0964 17.0628 16.1227 16.9596 16.1215H13.1197C12.95 16.1215 12.7872 16.0547 12.6672 15.9358C12.5472 15.8169 12.4797 15.6557 12.4797 15.4875C12.4797 15.3194 12.5472 15.1581 12.6672 15.0392C12.7872 14.9203 12.95 14.8535 13.1197 14.8535H16.39C16.6652 15.2593 16.9468 15.6587 17.254 16.0454Z" fill="#FFA665"/>
<path d="M22.0733 19.9779C22.0604 20.136 21.9882 20.2835 21.8709 20.3915C21.7536 20.4995 21.5998 20.56 21.4397 20.5612H19.5198C19.3502 20.5607 19.1877 20.4937 19.0678 20.3749C18.9479 20.2562 18.8803 20.0952 18.8798 19.9272V18.0252C18.8784 17.965 18.887 17.905 18.9054 17.8477C19.8377 18.7233 20.9076 19.4428 22.0733 19.9779Z" fill="#FFA665"/>
<path d="M13.6817 9.26499L10.5586 9.77853V9.14453H13.6369C13.6479 9.186 13.6629 9.22634 13.6817 9.26499Z" fill="#D74557"/>
</svg>
