<svg width="24" height="24" viewBox="0 0 24 24" fill="none" xmlns="http://www.w3.org/2000/svg">
<path d="M22.5 9.83923V20.2492C22.4983 20.8454 22.2606 21.4167 21.8391 21.8383C21.4175 22.2599 20.8462 22.4975 20.25 22.4992H3.75C3.1538 22.4975 2.58251 22.2599 2.16093 21.8383C1.73935 21.4167 1.50174 20.8454 1.5 20.2492V9.83923C1.4998 9.45508 1.59748 9.07721 1.78381 8.74128C1.97015 8.40535 2.239 8.12244 2.565 7.91923L4.8975 6.68173C5.0114 6.61918 5.13969 6.58755 5.26961 6.58997C5.39953 6.59239 5.52655 6.62879 5.63804 6.69553C5.74953 6.76227 5.8416 6.85704 5.90511 6.97041C5.96861 7.08377 6.00132 7.21179 6 7.34173V11.6617L10.4775 14.0767L12 14.8942L13.5225 14.0767L18 11.6617V7.34173C17.9987 7.21179 18.0314 7.08377 18.0949 6.97041C18.1584 6.85704 18.2505 6.76227 18.362 6.69553C18.4735 6.62879 18.6005 6.59239 18.7304 6.58997C18.8603 6.58755 18.9886 6.61918 19.1025 6.68173L21.39 7.89673C21.7271 8.09702 22.0065 8.38124 22.201 8.72167C22.3956 9.0621 22.4986 9.44713 22.5 9.83923Z" fill="#4294FF"/>
<path d="M22.5 9.83923V10.9492L12.3525 16.4092C12.2444 16.4683 12.1232 16.4993 12 16.4993C11.8768 16.4993 11.7556 16.4683 11.6475 16.4092L1.5 10.9492V9.83923C1.4998 9.45508 1.59748 9.07721 1.78381 8.74128C1.97015 8.40535 2.239 8.12244 2.565 7.91923L4.8975 6.68173C5.0114 6.61918 5.13969 6.58755 5.26961 6.58997C5.39953 6.59239 5.52655 6.62879 5.63804 6.69553C5.74953 6.76227 5.8416 6.85704 5.90511 6.97041C5.96861 7.08377 6.00132 7.21179 6 7.34173V11.6617L12 14.8942L18 11.6617V7.34173C17.9987 7.21179 18.0314 7.08377 18.0949 6.97041C18.1584 6.85704 18.2505 6.76227 18.362 6.69553C18.4735 6.62879 18.6005 6.59239 18.7304 6.58997C18.8603 6.58755 18.9886 6.61918 19.1025 6.68173L21.39 7.89673C21.7271 8.09702 22.0065 8.38124 22.201 8.72167C22.3956 9.0621 22.4986 9.44713 22.5 9.83923Z" fill="#376CFB"/>
<path d="M19.3425 22.4997H3.75001C3.15381 22.4979 2.58252 22.2603 2.16094 21.8388C1.73936 21.4172 1.50175 20.8459 1.50001 20.2497V9.83969C1.49906 9.4947 1.57774 9.15414 1.72994 8.84454C1.88214 8.53493 2.10375 8.26463 2.37751 8.05469C3.03751 12.9297 6.12751 21.2247 19.3425 22.4997Z" fill="#2965ED"/>
<path d="M22.5 19.8592V20.2492C22.4983 20.8454 22.2606 21.4167 21.8391 21.8382C21.4175 22.2598 20.8462 22.4974 20.25 22.4992H3.75C3.1538 22.4974 2.58251 22.2598 2.16093 21.8382C1.73935 21.4167 1.50174 20.8454 1.5 20.2492V19.8592L9.69 14.1217C9.80471 14.0431 9.9387 13.9975 10.0775 13.9895C10.2163 13.9816 10.3546 14.0117 10.4775 14.0767L12 14.8942L13.5225 14.0767C13.6454 14.0117 13.7837 13.9816 13.9225 13.9895C14.0613 13.9975 14.1953 14.0431 14.31 14.1217L22.5 19.8592Z" fill="#376CFB"/>
<path d="M3.36001 11.9472L1.50001 10.9497V9.83969C1.49906 9.4947 1.57774 9.15414 1.72994 8.84454C1.88214 8.53493 2.10375 8.26463 2.37751 8.05469C2.5556 9.38539 2.88524 10.6914 3.36001 11.9472Z" fill="#2045CE"/>
<path d="M19.3425 22.4988H3.75C3.1538 22.4971 2.58251 22.2595 2.16093 21.8379C1.73935 21.4163 1.50174 20.845 1.5 20.2488V19.8588L6.1425 16.6113C8.6475 19.4613 12.7275 21.8613 19.3425 22.4988Z" fill="#2045CE"/>
<path d="M18.75 1.5H5.25C5.05109 1.5 4.86032 1.57902 4.71967 1.71967C4.57902 1.86032 4.5 2.05109 4.5 2.25V12.5602L11.6444 16.4099C11.7536 16.469 11.8758 16.5 12 16.5C12.1242 16.5 12.2464 16.469 12.3556 16.4099L19.5 12.5602V2.25C19.5 2.05109 19.421 1.86032 19.2803 1.71967C19.1397 1.57902 18.9489 1.5 18.75 1.5Z" fill="#E6ECFF"/>
<path d="M14.595 15.2025L12.3525 16.41C12.2444 16.4691 12.1232 16.5 12 16.5C11.8768 16.5 11.7556 16.4691 11.6475 16.41L4.5 12.5625V2.25C4.50057 2.05126 4.57978 1.86083 4.7203 1.7203C4.86083 1.57978 5.05126 1.50057 5.25 1.5H7.9725C8.325 5.7975 9.87 11.7225 14.595 15.2025Z" fill="#B7C6E2"/>
<path d="M15.75 6H8.25C8.05109 6 7.86032 5.92098 7.71967 5.78033C7.57902 5.63968 7.5 5.44891 7.5 5.25C7.5 5.05109 7.57902 4.86032 7.71967 4.71967C7.86032 4.57902 8.05109 4.5 8.25 4.5H15.75C15.9489 4.5 16.1397 4.57902 16.2803 4.71967C16.421 4.86032 16.5 5.05109 16.5 5.25C16.5 5.44891 16.421 5.63968 16.2803 5.78033C16.1397 5.92098 15.9489 6 15.75 6Z" fill="#4294FF"/>
<path d="M15.75 9H8.25C8.05109 9 7.86032 8.92098 7.71967 8.78033C7.57902 8.63968 7.5 8.44891 7.5 8.25C7.5 8.05109 7.57902 7.86032 7.71967 7.71967C7.86032 7.57902 8.05109 7.5 8.25 7.5H15.75C15.9489 7.5 16.1397 7.57902 16.2803 7.71967C16.421 7.86032 16.5 8.05109 16.5 8.25C16.5 8.44891 16.421 8.63968 16.2803 8.78033C16.1397 8.92098 15.9489 9 15.75 9Z" fill="#4294FF"/>
<path d="M15.75 12H8.25C8.05109 12 7.86032 11.921 7.71967 11.7803C7.57902 11.6397 7.5 11.4489 7.5 11.25C7.5 11.0511 7.57902 10.8603 7.71967 10.7197C7.86032 10.579 8.05109 10.5 8.25 10.5H15.75C15.9489 10.5 16.1397 10.579 16.2803 10.7197C16.421 10.8603 16.5 11.0511 16.5 11.25C16.5 11.4489 16.421 11.6397 16.2803 11.7803C16.1397 11.921 15.9489 12 15.75 12Z" fill="#4294FF"/>
<path d="M8.745 6H8.25C8.05109 6 7.86032 5.92098 7.71967 5.78033C7.57902 5.63968 7.5 5.44891 7.5 5.25C7.5 5.05109 7.57902 4.86032 7.71967 4.71967C7.86032 4.57902 8.05109 4.5 8.25 4.5H8.3925C8.49 4.995 8.61 5.4975 8.745 6Z" fill="#2965ED"/>
<path d="M9.795 9H8.25C8.05109 9 7.86032 8.92098 7.71967 8.78033C7.57902 8.63968 7.5 8.44891 7.5 8.25C7.5 8.05109 7.57902 7.86032 7.71967 7.71967C7.86032 7.57902 8.05109 7.5 8.25 7.5H9.21C9.37754 8.01028 9.57284 8.51102 9.795 9Z" fill="#2965ED"/>
<path d="M11.475 12H8.25C8.05109 12 7.86032 11.921 7.71967 11.7803C7.57902 11.6397 7.5 11.4489 7.5 11.25C7.5 11.0511 7.57902 10.8603 7.71967 10.7197C7.86032 10.579 8.05109 10.5 8.25 10.5H10.53C10.8182 11.0164 11.1337 11.5171 11.475 12Z" fill="#2965ED"/>
<path d="M22.4961 24H11.5039C10.6747 24 10 23.3253 10 22.4961V15.3867C10 15.1602 10.1836 14.9766 10.4102 14.9766H23.5898C23.8164 14.9766 24 15.1602 24 15.3867V22.4961C24 23.3253 23.3253 24 22.4961 24Z" fill="#F5F5FF"/>
<path d="M23.5898 14.9766H17V24H22.4961C23.3253 24 24 23.3253 24 22.4961V15.3867C24 15.1602 23.8164 14.9766 23.5898 14.9766Z" fill="#E2E7FA"/>
<path d="M22.4961 11.6406H11.5039C10.6747 11.6406 10 12.3153 10 13.1445V15.3867H24V13.1445C24 12.3153 23.3253 11.6406 22.4961 11.6406Z" fill="#EF5CA2"/>
<path d="M22.4961 11.6406H17V15.3867H24V13.1445C24 12.3153 23.3253 11.6406 22.4961 11.6406Z" fill="#EA1C81"/>
<path d="M20.2812 10C19.8282 10 19.4609 10.3673 19.4609 10.8203V13.2812C19.4609 13.7343 19.8282 14.1016 20.2812 14.1016C20.7343 14.1016 21.1016 13.7343 21.1016 13.2812V10.8203C21.1016 10.3673 20.7343 10 20.2812 10Z" fill="#FFC178"/>
<path d="M13.7188 14.1016C13.2657 14.1016 12.8984 13.7343 12.8984 13.2812V10.8203C12.8984 10.3673 13.2657 10 13.7188 10C14.1718 10 14.5391 10.3673 14.5391 10.8203V13.2812C14.5391 13.7343 14.1718 14.1016 13.7188 14.1016Z" fill="#FFFA8C"/>
<path d="M19.5619 16H18.4381C18.1962 16 18 16.1919 18 16.4286C18 16.6653 18.1962 16.8571 18.4381 16.8571H19.1237V21.5714C19.1237 21.8081 19.3199 22 19.5619 22C19.8038 22 20 21.8081 20 21.5714V16.4286C20 16.1919 19.8039 16 19.5619 16Z" fill="#453D81"/>
<path d="M17 17.7143C17 16.769 16.1028 16 15 16C14.0464 16 13.2211 16.5814 13.0375 17.3825C12.9843 17.6147 13.1608 17.84 13.4318 17.8856C13.7025 17.9312 13.9655 17.7799 14.0188 17.5477C14.1105 17.1476 14.5231 16.8571 15 16.8571C15.5514 16.8571 16 17.2417 16 17.7143C16 18.1869 15.5514 18.5714 15 18.5714C14.7239 18.5714 14.5 18.7633 14.5 19C14.5 19.2367 14.7239 19.4286 15 19.4286C15.5514 19.4286 16 19.8131 16 20.2857C16 20.7583 15.5514 21.1429 15 21.1429C14.5038 21.1429 14.0781 20.826 14.0097 20.4058C14.0033 20.3665 14 20.3261 14 20.2857C14 20.049 13.7761 19.8571 13.5 19.8571C13.2239 19.8571 13 20.049 13 20.2857C13 20.3655 13.0065 20.4458 13.0192 20.5243C13.1562 21.3656 14.0077 22 15 22C16.1028 22 17 21.231 17 20.2857C17 19.7741 16.7368 19.3144 16.3208 19C16.7368 18.6856 17 18.2259 17 17.7143Z" fill="#6B61B1"/>
</svg>
