<svg width="22" height="21" viewBox="0 0 22 21" fill="none" xmlns="http://www.w3.org/2000/svg">
<path d="M11.0017 17.25C14.7296 17.25 17.7517 14.2279 17.7517 10.5C17.7517 6.77208 14.7296 3.75 11.0017 3.75C7.27379 3.75 4.25171 6.77208 4.25171 10.5C4.25171 14.2279 7.27379 17.25 11.0017 17.25Z" fill="#C790FF"/>
<path d="M17.7516 10.5007C17.7518 12.1147 17.1736 13.6753 16.1218 14.8996C15.0701 16.1238 13.6145 16.9306 12.0189 17.1737C10.4233 17.4169 8.79348 17.0801 7.42488 16.2246C6.05627 15.3691 5.03955 14.0515 4.55908 12.5107C8.98012 11.5746 13.1809 9.80016 16.9341 7.2832C17.473 8.2698 17.7542 9.37649 17.7516 10.5007Z" fill="#8F4FCF"/>
<path d="M13.1228 11.5606L11.7517 10.1894V8.25C11.7517 8.05109 11.6727 7.86032 11.532 7.71967C11.3914 7.57902 11.2006 7.5 11.0017 7.5C10.8028 7.5 10.612 7.57902 10.4714 7.71967C10.3307 7.86032 10.2517 8.05109 10.2517 8.25V10.5C10.2528 10.699 10.3319 10.8896 10.4721 11.0309L12.0621 12.6209C12.2035 12.7575 12.393 12.8331 12.5896 12.8314C12.7863 12.8297 12.9744 12.7508 13.1134 12.6118C13.2525 12.4727 13.3314 12.2846 13.3331 12.088C13.3348 11.8913 13.2592 11.7019 13.1226 11.5604L13.1228 11.5606Z" fill="white"/>
<path d="M11.0006 1.63665e-05C10.8017 1.63665e-05 10.6109 0.079034 10.4702 0.219686C10.3296 0.360339 10.2506 0.551104 10.2506 0.750016C10.2506 0.948929 10.3296 1.13969 10.4702 1.28035C10.6109 1.421 10.8017 1.50002 11.0006 1.50002C13.1002 1.49134 15.1372 2.21395 16.762 3.54377C18.3868 4.87359 19.4978 6.72763 19.9044 8.78748C20.3109 10.8473 19.9876 12.9845 18.9899 14.8319C17.9922 16.6793 16.3825 18.1217 14.437 18.9114C12.4916 19.701 10.3319 19.7887 8.32887 19.1594C6.32583 18.53 4.60441 17.2228 3.46025 15.4624C2.31608 13.7019 1.82057 11.598 2.0588 9.51201C2.29703 7.42597 3.25413 5.48797 4.76575 4.03082L4.7149 4.41872C4.68904 4.61598 4.74261 4.81543 4.86381 4.9732C4.98501 5.13097 5.16392 5.23413 5.36118 5.25999C5.55844 5.28585 5.75789 5.23229 5.91566 5.11109C6.07343 4.98989 6.17659 4.81098 6.20245 4.61372L6.49435 2.38277C6.51522 2.18637 6.45969 1.98947 6.33927 1.83292C6.21886 1.67637 6.04281 1.57217 5.84763 1.54194L3.61668 1.25027C3.51767 1.23452 3.41651 1.23878 3.31918 1.26281C3.22185 1.28683 3.13032 1.33012 3.05 1.39012C2.96969 1.45012 2.90222 1.52561 2.85158 1.61214C2.80095 1.69866 2.76817 1.79446 2.75519 1.89387C2.74222 1.99328 2.7493 2.09428 2.77603 2.1909C2.80275 2.28753 2.84858 2.37781 2.9108 2.45642C2.97302 2.53503 3.05036 2.60037 3.13827 2.64857C3.22617 2.69678 3.32285 2.72687 3.42258 2.73707L3.8896 2.79827C2.09915 4.45969 0.94515 6.69425 0.626944 9.11599C0.308738 11.5377 0.846304 13.9946 2.14679 16.0621C3.44727 18.1297 5.42901 19.6781 7.7497 20.44C10.0704 21.2019 12.5843 21.1294 14.8572 20.2349C17.1301 19.3405 19.0193 17.6804 20.1984 15.5413C21.3775 13.4022 21.7725 10.9185 21.3152 8.51911C20.8579 6.11975 19.577 3.95543 17.6938 2.4C15.8105 0.844572 13.4431 -0.0042982 11.0006 1.63665e-05Z" fill="#8500EE"/>
<path d="M13.124 12.6224C12.9818 12.7618 12.7906 12.8399 12.5915 12.8399C12.3923 12.8399 12.2012 12.7618 12.059 12.6224L10.469 11.0324C10.4012 10.9607 10.3477 10.8767 10.3115 10.7849C10.3115 10.7774 10.304 10.7774 10.304 10.7699C10.7765 10.5899 11.2565 10.3874 11.7515 10.1699V10.1924L13.124 11.5574C13.2645 11.699 13.3433 11.8904 13.3433 12.0899C13.3433 12.2894 13.2645 12.4808 13.124 12.6224Z" fill="#CECECE"/>
</svg>
