<?xml version="1.0" encoding="utf-8"?>
<!-- Generator: Adobe Illustrator 24.0.3, SVG Export Plug-In . SVG Version: 6.00 Build 0)  -->
<svg version="1.1" id="Layer_1" xmlns="http://www.w3.org/2000/svg" xmlns:xlink="http://www.w3.org/1999/xlink" x="0px" y="0px"
	 viewBox="0 0 20 22" style="enable-background:new 0 0 20 22;" xml:space="preserve">
<style type="text/css">
	.st0{fill:#00FF2A;}
	.st1{fill:#FFBC6E;}
</style>
<g>
	<path class="st0" d="M4.1,17h-3c-0.4,0-0.8,0.3-0.8,0.8v3c0,0.4,0.4,0.7,0.8,0.7h3c0.4,0,0.8-0.3,0.8-0.8v-3
		C4.9,17.2,4.5,17,4.1,17z"/>
	<path class="st0" d="M11.6,17h-3c-0.4,0-0.8,0.3-0.8,0.8v3c0,0.4,0.3,0.8,0.8,0.8h3c0.4,0,0.8-0.3,0.8-0.8v-3
		C12.3,17.2,12,17,11.6,17z"/>
	<path class="st0" d="M19.1,17h-3c-0.4,0-0.8,0.3-0.8,0.8v3c0,0.4,0.3,0.8,0.8,0.8h3c0.4,0,0.8-0.3,0.8-0.8v-3
		C19.9,17.2,19.5,17,19.1,17z"/>
	<path class="st0" d="M14.6,8.6V8.4c-0.2-0.6-0.4-1.2-0.8-1.7c-0.4-0.5-0.9-0.9-1.4-1.2c0.4-0.4,0.7-1,0.8-1.5
		c0.1-0.6,0-1.2-0.2-1.7s-0.6-1-1.1-1.3c-0.6-0.3-1.2-0.5-1.8-0.5S8.9,0.7,8.5,1C8,1.3,7.6,1.8,7.3,2.3C7.1,2.8,7,3.4,7.1,4
		s0.4,1.1,0.8,1.5c-0.6,0.3-1,0.7-1.4,1.2S5.8,7.8,5.7,8.4v0.2c0,0.1,0,0.2,0,0.3s0.1,0.2,0.1,0.3C5.9,9.3,6,9.4,6.1,9.4
		c0,0.1,0.1,0.1,0.2,0.1h7.5c0.1,0,0.2,0,0.3-0.1c0.1,0,0.2-0.1,0.3-0.2c0.1-0.1,0.1-0.2,0.1-0.3C14.6,8.8,14.6,8.7,14.6,8.6z"/>
	<path class="st1" d="M17.6,12.5h-6.8V11c0-0.2-0.1-0.4-0.2-0.5c-0.1-0.1-0.3-0.2-0.5-0.2s-0.4,0.1-0.5,0.2
		c-0.1,0.1-0.2,0.3-0.2,0.5v1.5H2.6c-0.2,0-0.4,0.1-0.5,0.2C2,12.8,1.9,13,1.9,13.2v2.3c0,0.2,0.1,0.4,0.2,0.5s0.3,0.2,0.5,0.2
		S3,16.1,3.1,16s0.2-0.3,0.2-0.5V14h6v1.5c0,0.2,0.1,0.4,0.2,0.5c0.1,0.1,0.3,0.2,0.5,0.2s0.4-0.1,0.5-0.2s0.2-0.3,0.2-0.5V14h6v1.5
		c0,0.2,0.1,0.4,0.2,0.5s0.3,0.2,0.5,0.2s0.4-0.1,0.5-0.2s0.2-0.3,0.2-0.5v-2.2c0-0.2-0.1-0.4-0.2-0.5C18,12.6,17.8,12.5,17.6,12.5z
		"/>
</g>
</svg>
