<svg width="22" height="17" viewBox="0 0 22 17" fill="none" xmlns="http://www.w3.org/2000/svg">
<path d="M19.25 2.15234H13.25C13.0511 2.15234 12.8603 2.22988 12.7197 2.36791C12.579 2.50593 12.5 2.69313 12.5 2.88833V3.62431H9.5V2.88833C9.5 2.69313 9.42098 2.50593 9.28033 2.36791C9.13968 2.22988 8.94891 2.15234 8.75 2.15234H2.75C2.15346 2.15299 1.58155 2.38582 1.15973 2.79975C0.737918 3.21368 0.500655 3.7749 0.5 4.36029V14.664C0.500655 15.2494 0.737918 15.8106 1.15973 16.2246C1.58155 16.6385 2.15346 16.8713 2.75 16.872H19.25C19.8465 16.8713 20.4185 16.6385 20.8403 16.2246C21.2621 15.8106 21.4993 15.2494 21.5 14.664V4.36029C21.4993 3.7749 21.2621 3.21368 20.8403 2.79975C20.4185 2.38582 19.8465 2.15299 19.25 2.15234Z" fill="#E6ECFF"/>
<path d="M21.5 12.0443V14.6644C21.4983 15.2494 21.2606 15.81 20.8391 16.2237C20.4175 16.6374 19.8462 16.8706 19.25 16.8723H2.75C2.1538 16.8706 1.58251 16.6374 1.16093 16.2237C0.739354 15.81 0.501742 15.2494 0.5 14.6644V4.36065C0.499811 4.06147 0.563691 3.76559 0.6875 3.49219C3.6275 7.88599 9.725 13.3617 21.5 12.0443Z" fill="#B7C6E2"/>
<path d="M12.5 0.679688H9.5C8.67157 0.679688 8 1.33871 8 2.15165V3.62361C8 4.43655 8.67157 5.09557 9.5 5.09557H12.5C13.3284 5.09557 14 4.43655 14 3.62361V2.15165C14 1.33871 13.3284 0.679688 12.5 0.679688Z" fill="#4294FF"/>
<path d="M17.2858 10.1045C17.5851 9.72386 17.7483 9.25707 17.75 8.7763C17.75 8.19072 17.5129 7.62912 17.091 7.21505C16.669 6.80098 16.0967 6.56836 15.5 6.56836C14.9033 6.56836 14.331 6.80098 13.909 7.21505C13.4871 7.62912 13.25 8.19072 13.25 8.7763C13.2517 9.25707 13.4149 9.72386 13.7142 10.1045C13.3388 10.3762 13.0335 10.7305 12.8226 11.1389C12.6117 11.5472 12.5013 11.9984 12.5 12.4562V13.1922C12.5 13.3874 12.579 13.5746 12.7197 13.7126C12.8603 13.8506 13.0511 13.9282 13.25 13.9282H17.75C17.9489 13.9282 18.1397 13.8506 18.2803 13.7126C18.421 13.5746 18.5 13.3874 18.5 13.1922V12.4562C18.4987 11.9984 18.3883 11.5472 18.1774 11.1389C17.9665 10.7305 17.6612 10.3762 17.2858 10.1045Z" fill="#4294FF"/>
<path d="M11 8.7747H4.25C4.05109 8.7747 3.86032 8.69716 3.71967 8.55913C3.57902 8.42111 3.5 8.23391 3.5 8.03872C3.5 7.84352 3.57902 7.65632 3.71967 7.5183C3.86032 7.38028 4.05109 7.30273 4.25 7.30273H11C11.1989 7.30273 11.3897 7.38028 11.5303 7.5183C11.671 7.65632 11.75 7.84352 11.75 8.03872C11.75 8.23391 11.671 8.42111 11.5303 8.55913C11.3897 8.69716 11.1989 8.7747 11 8.7747Z" fill="#4294FF"/>
<path d="M9.5 10.9837H4.25C4.05109 10.9837 3.86032 10.9061 3.71967 10.7681C3.57902 10.6301 3.5 10.4429 3.5 10.2477C3.5 10.0525 3.57902 9.86531 3.71967 9.72728C3.86032 9.58926 4.05109 9.51172 4.25 9.51172H9.5C9.69891 9.51172 9.88968 9.58926 10.0303 9.72728C10.171 9.86531 10.25 10.0525 10.25 10.2477C10.25 10.4429 10.171 10.6301 10.0303 10.7681C9.88968 10.9061 9.69891 10.9837 9.5 10.9837Z" fill="#4294FF"/>
<path d="M8 13.1907H4.25C4.05109 13.1907 3.86032 13.1132 3.71967 12.9751C3.57902 12.8371 3.5 12.6499 3.5 12.4547C3.5 12.2595 3.57902 12.0723 3.71967 11.9343C3.86032 11.7963 4.05109 11.7188 4.25 11.7188H8C8.19891 11.7188 8.38968 11.7963 8.53033 11.9343C8.67098 12.0723 8.75 12.2595 8.75 12.4547C8.75 12.6499 8.67098 12.8371 8.53033 12.9751C8.38968 13.1132 8.19891 13.1907 8 13.1907Z" fill="#2965ED"/>
<path d="M5.88502 8.77696H4.25002C4.05128 8.77639 3.86085 8.69867 3.72032 8.56077C3.57979 8.42287 3.50059 8.236 3.50002 8.04098C3.49893 7.88233 3.55128 7.72778 3.64894 7.60134C3.74659 7.4749 3.88407 7.38366 4.04002 7.3418C4.62506 7.85614 5.24118 8.3354 5.88502 8.77696Z" fill="#4294FF"/>
<path d="M9.92 10.8586C9.79636 10.9415 9.64975 10.9852 9.5 10.9837H4.25C4.05109 10.9837 3.86032 10.9061 3.71967 10.7681C3.57902 10.6301 3.5 10.4429 3.5 10.2477C3.5 10.0525 3.57902 9.86531 3.71967 9.72728C3.86032 9.58926 4.05109 9.51172 4.25 9.51172H7.0625C7.97597 10.0364 8.93166 10.4869 9.92 10.8586Z" fill="#2965ED"/>
<path d="M4.04002 7.3418C4.62506 7.85614 5.24118 8.3354 5.88502 8.77696H4.25002C4.05128 8.77639 3.86085 8.69867 3.72032 8.56077C3.57979 8.42287 3.50059 8.236 3.50002 8.04098C3.49893 7.88233 3.55128 7.72778 3.64894 7.60134C3.74659 7.4749 3.88407 7.38366 4.04002 7.3418Z" fill="#2965ED"/>
<path d="M18.5001 12.4555V13.1915C18.4995 13.3865 18.4203 13.5733 18.2798 13.7112C18.1393 13.8491 17.9488 13.9269 17.7501 13.9274H13.2501C13.0514 13.9269 12.8609 13.8491 12.7204 13.7112C12.5799 13.5733 12.5007 13.3865 12.5001 13.1915V12.4555C12.4978 12.1884 12.5383 11.9227 12.6201 11.668C14.5447 12.0882 16.514 12.2785 18.4851 12.2347C18.4975 12.3076 18.5026 12.3816 18.5001 12.4555Z" fill="#2965ED"/>
</svg>
