<svg width="24" height="24" viewBox="0 0 24 24" fill="none" xmlns="http://www.w3.org/2000/svg">
<path d="M5.87158 6.43359H3.76221C3.05358 6.43359 2.37398 6.15209 1.87291 5.65102C1.37183 5.14995 1.09033 4.47034 1.09033 3.76172C1.09033 3.05309 1.37183 2.37349 1.87291 1.87242C2.37398 1.37134 3.05358 1.08984 3.76221 1.08984H9.29346C9.38048 1.08984 9.46394 1.12441 9.52548 1.18595C9.58701 1.24748 9.62158 1.33094 9.62158 1.41797C9.62158 1.50499 9.58701 1.58845 9.52548 1.64999C9.46394 1.71152 9.38048 1.74609 9.29346 1.74609H3.76221C3.22763 1.74609 2.71495 1.95845 2.33695 2.33646C1.95894 2.71446 1.74658 3.22714 1.74658 3.76172C1.74658 4.2963 1.95894 4.80898 2.33695 5.18698C2.71495 5.56498 3.22763 5.77734 3.76221 5.77734H5.87158C5.95861 5.77734 6.04207 5.81191 6.1036 5.87345C6.16514 5.93499 6.19971 6.01845 6.19971 6.10547C6.19971 6.19249 6.16514 6.27595 6.1036 6.33749C6.04207 6.39902 5.95861 6.43359 5.87158 6.43359Z" fill="#E20000"/>
<path d="M5.87158 5.39258H3.76221C3.35195 5.39258 2.9585 5.2296 2.6684 4.93951C2.37831 4.64941 2.21533 4.25596 2.21533 3.8457C2.21533 3.43545 2.37831 3.04199 2.6684 2.7519C2.9585 2.4618 3.35195 2.29883 3.76221 2.29883H7.96914C8.05617 2.29883 8.13963 2.3334 8.20116 2.39493C8.2627 2.45647 8.29727 2.53993 8.29727 2.62695C8.29727 2.71398 8.2627 2.79744 8.20116 2.85897C8.13963 2.92051 8.05617 2.95508 7.96914 2.95508H3.76221C3.526 2.95508 3.29946 3.04891 3.13244 3.21594C2.96542 3.38296 2.87158 3.60949 2.87158 3.8457C2.87158 4.08191 2.96542 4.30845 3.13244 4.47547C3.29946 4.64249 3.526 4.73633 3.76221 4.73633H5.87158C5.95861 4.73633 6.04207 4.7709 6.1036 4.83243C6.16514 4.89397 6.19971 4.97743 6.19971 5.06445C6.19971 5.15148 6.16514 5.23494 6.1036 5.29647C6.04207 5.35801 5.95861 5.39258 5.87158 5.39258Z" fill="#E20000"/>
<path d="M8.66171 12.3299C8.59184 12.3299 8.5238 12.3075 8.46753 12.2661C8.41126 12.2247 8.36971 12.1663 8.34896 12.0996C8.1893 11.5024 8.1959 10.873 8.36804 10.2792C8.54017 9.68553 8.87131 9.15016 9.32564 8.73099C9.38922 8.67156 9.4738 8.63983 9.56078 8.64277C9.64775 8.6457 9.73 8.68307 9.78943 8.74665C9.84885 8.81022 9.88059 8.8948 9.87765 8.98178C9.87471 9.06875 9.83735 9.151 9.77377 9.21043C9.40938 9.54548 9.14273 9.97313 9.00224 10.4478C8.86174 10.9224 8.85265 11.4263 8.97596 11.9057C9.00113 11.9889 8.99237 12.0787 8.95158 12.1554C8.91079 12.2321 8.84129 12.2896 8.75827 12.3152C8.72698 12.3248 8.69444 12.3298 8.66171 12.3299Z" fill="#F2371E"/>
<path d="M10.5056 12.668C10.4382 12.6679 10.3725 12.6471 10.3173 12.6085C10.2621 12.5698 10.2202 12.5151 10.1971 12.4518C10.0099 11.8626 9.98727 11.2336 10.1316 10.6325C10.2759 10.0314 10.5817 9.48124 11.016 9.04133C11.0459 9.00988 11.0818 8.98469 11.1215 8.96721C11.1613 8.94974 11.2041 8.94032 11.2475 8.93951C11.2909 8.9387 11.334 8.94651 11.3744 8.9625C11.4148 8.97848 11.4516 9.00232 11.4826 9.03262C11.5137 9.06293 11.5385 9.09911 11.5555 9.13905C11.5725 9.179 11.5814 9.22193 11.5817 9.26534C11.582 9.30876 11.5737 9.3518 11.5572 9.39198C11.5408 9.43215 11.5165 9.46866 11.4858 9.49939C11.1398 9.8523 10.8948 10.2917 10.7767 10.7716C10.6585 11.2516 10.6714 11.7545 10.814 12.2277C10.8319 12.2773 10.8376 12.3304 10.8306 12.3827C10.8237 12.4349 10.8043 12.4847 10.774 12.5279C10.7438 12.571 10.7036 12.6063 10.6569 12.6307C10.6102 12.655 10.5583 12.6678 10.5056 12.668Z" fill="#F2371E"/>
<path d="M12.4541 12.8801C12.3926 12.8802 12.3323 12.863 12.2802 12.8305C12.2281 12.7979 12.1862 12.7513 12.1593 12.696C11.9115 12.1297 11.8231 11.5065 11.9037 10.8936C11.9844 10.2808 12.2309 9.70157 12.6168 9.21865C12.6707 9.15032 12.7496 9.10621 12.836 9.09601C12.9224 9.08581 13.0094 9.11037 13.0777 9.16427C13.146 9.21818 13.1901 9.29702 13.2003 9.38345C13.2105 9.46988 13.186 9.55682 13.1321 9.62515C12.8225 10.0114 12.6235 10.4744 12.5562 10.9649C12.489 11.4553 12.5561 11.9548 12.7503 12.4101C12.7742 12.4602 12.785 12.5154 12.7817 12.5708C12.7784 12.6262 12.7612 12.6798 12.7316 12.7267C12.7021 12.7736 12.6611 12.8123 12.6126 12.8391C12.564 12.866 12.5095 12.8801 12.4541 12.8801Z" fill="#F2371E"/>
<path d="M16.8266 18.9592C16.5923 20.5296 15.2563 22.7796 11.6469 22.7796C11.8525 21.846 12.2695 20.9721 12.8657 20.2249C11.4594 19.7561 11.3906 17.8575 11.3906 17.8575C13.7109 17.2716 16.0532 17.9514 16.8266 18.9592Z" fill="#F2371E"/>
<path d="M22.9091 11.0701C22.9107 11.9083 22.7758 12.741 22.5099 13.5343C22.4153 13.8158 22.305 14.0915 22.1794 14.3601V14.362C20.9408 17.0379 18.4248 18.75 16.9969 19.5475C16.8886 19.6077 16.7669 19.6381 16.6436 19.6359C16.5203 19.6336 16.3997 19.5988 16.2937 19.5347C16.1876 19.4706 16.0998 19.3796 16.0388 19.2705C15.9778 19.1614 15.9458 19.0381 15.9459 18.9126C15.9474 18.7273 16.0169 18.5494 16.1408 18.4137C17.1343 17.3195 17.9791 15.8946 18.3078 14.585C18.3617 14.3705 18.402 14.1528 18.4285 13.933C18.4437 13.788 18.4518 13.6423 18.4526 13.4965C18.451 12.6522 18.1205 11.843 17.5337 11.2461C16.9469 10.6493 16.1516 10.3135 15.322 10.3123H11.6027C10.1408 10.3124 8.72723 9.77977 7.61786 8.8109C6.50849 7.84202 5.77665 6.50091 5.55486 5.03038L5.45459 4.36329H16.3191C17.9547 4.36029 19.5324 4.97974 20.7422 6.09998C20.822 6.17179 20.9018 6.24927 20.978 6.32675C21.0727 6.42313 21.1655 6.52518 21.2528 6.62723C22.3226 7.85074 22.9122 9.4323 22.9091 11.0701Z" fill="#FF8963"/>
<path d="M12.1403 9.64149H11.364C11.0086 9.64165 10.654 9.60723 10.3052 9.53874C10.2629 9.53041 10.2227 9.51383 10.1868 9.48995C10.151 9.46607 10.1201 9.43536 10.0961 9.39957C10.0477 9.32729 10.0299 9.23872 10.0467 9.15334C10.0551 9.11106 10.0716 9.07084 10.0955 9.03497C10.1194 8.9991 10.1501 8.96829 10.1859 8.94428C10.2582 8.89581 10.3467 8.87804 10.4321 8.89487C10.7391 8.95513 11.0512 8.9854 11.364 8.98524H12.1403C12.2273 8.98524 12.3107 9.01982 12.3723 9.08135C12.4338 9.14289 12.4684 9.22635 12.4684 9.31337C12.4684 9.40039 12.4338 9.48385 12.3723 9.54539C12.3107 9.60692 12.2273 9.64149 12.1403 9.64149Z" fill="#F2371E"/>
<path d="M22.3776 13.6339C22.2822 13.9132 22.1707 14.1868 22.0439 14.4533V14.4552C21.3651 14.7963 20.6155 14.973 19.8558 14.9708C19.2696 14.9693 18.6879 14.8698 18.1345 14.6764C18.1889 14.4636 18.2296 14.2475 18.2564 14.0295C18.2756 14.0328 18.2944 14.0378 18.3126 14.0445C20.512 14.8114 22.0533 13.6902 22.0683 13.6789C22.1119 13.6459 22.1631 13.6245 22.2172 13.6167C22.2713 13.6088 22.3265 13.6147 22.3776 13.6339Z" fill="#F2371E"/>
<path d="M21.1086 6.78289C20.7786 8.39164 19.6424 10.8329 17.6399 11.6898C17.5032 11.5113 17.348 11.3479 17.1768 11.2023C17.2093 11.1665 17.2497 11.1389 17.2949 11.1216C19.2149 10.366 20.2686 7.90414 20.5068 6.43227C20.5168 6.36717 20.547 6.30686 20.593 6.25977C20.6736 6.33102 20.7543 6.40789 20.8311 6.48477C20.9268 6.58039 21.0205 6.68164 21.1086 6.78289Z" fill="#F2371E"/>
<path d="M15.032 10.4377H14.3589C14.359 10.402 14.3647 10.3666 14.3758 10.3327C14.897 8.79516 14.9758 5.54203 14.7939 4.59703C14.7902 4.57661 14.7884 4.5559 14.7883 4.53516H15.4483C15.6283 5.60766 15.5514 8.78016 15.032 10.4377Z" fill="#F2371E"/>
<path d="M9.65503 6.58594C9.96569 6.58594 10.2175 6.3341 10.2175 6.02344C10.2175 5.71278 9.96569 5.46094 9.65503 5.46094C9.34437 5.46094 9.09253 5.71278 9.09253 6.02344C9.09253 6.3341 9.34437 6.58594 9.65503 6.58594Z" fill="#3D85CC"/>
</svg>
