<svg height="512" viewBox="0 0 58 58" width="512" xmlns="http://www.w3.org/2000/svg"><g id="027---Orchid" fill="none" transform="translate(-1)"><path id="Shape" d="m21.34 51c-2.6-4.09-6.49-5.37-11.34-4-4.62 1.32-5.32 6.9-5.26 10 .01855378.4161463.29313264.7772031.68919691.9062578.39606426.1290546.83064467-.0009278 1.09080309-.3262578 5.86-7.67 10.71-6.55 13.81-3.86.5278402.2201251 1.099229.3159269 1.67.28 0-1.25.13-.6-.66-3z" fill="#26b99a"/><path id="Shape" d="m21 57c0 .5522847.4477153 1 1 1h2c.5522847 0 1-.4477153 1-1 .1039699-5.1937521.6729095-10.3677553 1.7-15.46-.7-1.54-2.7-.54-4 .05-1.0836589 5.0663927-1.6532118 10.2292218-1.7 15.41z" fill="#14a085"/><path id="Shape" d="m39.74 16c-.3610909.0035585-.6960518-.1878355-.8763264-.5007258-.1802746-.3128904-.1778564-.6986684.0063264-1.0092742 3.2726882-5.26232466 8.2325767-9.25984669 14.07-11.34.524475-.1634633 1.0826077.12676572 1.25.65.0815936.25327301.0588801.52862124-.0631131.76510037-.1219932.23647914-.3332051.41458614-.5868869.49489963-.08 0-8.44 2.77-12.94 10.45-.1800643.3036995-.5069327.4899384-.86.49z" fill="#26b99a"/><path id="Shape" d="m39.74 16c-.4734743.007416-.8872398-.3182738-.9912434-.7802436-.1040037-.4619698.1302709-.9335535.5612434-1.1297564 2.7390808-1.238055 5.6875104-1.947171 8.69-2.09.5522847 0 1 .4477153 1 1s-.4477153 1-1 1c-2.7191601.1425642-5.3879912.7902729-7.87 1.91-.1231051.0544941-.2554643.0850385-.39.09z" fill="#26b99a"/><path id="Shape" d="m41 22c.0703895-1.3385089-.0134957-2.680672-.25-4-.8627293-3.2991086-2.5885411-6.3089245-5-8.72-.4197059-.41032907-1.0902941-.41032907-1.51 0-3.45 3.58-5.62 7.77-5.24 12.72l6 9z" fill="#894b9d"/><path id="Shape" d="m35 33c-2.8078199.1604331-5.5980098-.5371144-8-2-.48-.31-3.38.67-3.79.28-2.2778007 2.3532114-3.9193084 5.2473581-4.77 8.41-.1530932.5686544.1821012 1.1541272.75 1.31 2.14.54 7.27 1.47 11.52-.63z" fill="#894b9d"/><path id="Shape" d="m46.8 31.27c-.42.39-2.31-.59-2.8-.27-2.4054001 1.4547117-5.1930179 2.1516162-8 2l3.29 7.37c4.25 2.1 9.38 1.17 11.52.63.5678988-.1558728.9030932-.7413456.75-1.31-.56-1.88-1.69-5.69-4.76-8.42z" fill="#894b9d"/><path id="Shape" d="m45 37.77c-.4 0-.23 0-4.42-2.49-.3478371-.1572029-.5758412-.4987108-.5876816-.8802382-.0118403-.3815275.1945486-.7365164.5319684-.9149856.3374198-.1784693.7470071-.1492845 1.0557132.0752238l3.9 2.35c.3829514.2267866.5699326.6793674.4587203 1.1103149-.1112122.4309475-.4938485.7365303-.9387203.7496851z" fill="#3d324c"/><path id="Shape" d="m25 37.77c-.4522035.0044258-.8510984-.2951811-.9728582-.7307063-.1217597-.4355252.0639229-.8985624.4528582-1.1292937l3.91-2.35c.4672916-.2111896 1.0186013-.0346812 1.2763444.408637.2577431.4433181.1383777 1.0097539-.2763444 1.311363-4.08 2.49-3.97 2.49-4.39 2.49z" fill="#3d324c"/><path id="Shape" d="m35 28c-.5522847 0-1-.4477153-1-1v-6c0-.5522847.4477153-1 1-1s1 .4477153 1 1v6c0 .5522847-.4477153 1-1 1z" fill="#3d324c"/><path id="Shape" d="m25 21.37c-.4299159.0011098-.8124279-.2726883-.95-.68-2.3-6.69-8.05-6.69-16.05-6.69l-5-1 5-1c8.13 0 15.16 0 17.93 8 .1227404.3081879.08466.657184-.101656.9316496-.186316.2744655-.4966139.4386717-.828344.4383504z" fill="#26b99a"/><path id="Shape" d="m25 21.37c-.5522847 0-1-.4477153-1-1 0-4.72-3-11.23-6.64-14.51-.200273-.17686835-.3214359-.42652849-.3364652-.69329774-.0150292-.26676924.0773252-.52845852.2564652-.72670226.3704771-.40774723 1.0009586-.43904773 1.41-.07 4.1 3.63 7.31 10.7 7.31 16 0 .5522847-.4477153 1-1 1z" fill="#26b99a"/><path id="Shape" d="m35 26.83c-1.3721831-1.93125-3.1121097-3.572626-5.12-4.83-3.88-2.57-8.79-1.57-10.78-1-.5254953.201054-.8145623.7662447-.67 1.31.56 2.22 2.25 7.51 6.12 10 2.2877334 1.6343945 5.00103 2.5689358 7.81 2.69h3.64z" fill="#955ba5"/><path id="Shape" d="m37.64 35c2.7942867-.1076863 5.4985593-1.0172106 7.79-2.62 3.89-2.52 5.58-7.81 6.14-10 .1871792-.565534-.1098399-1.1773047-.67-1.38-2-.57-6.93-1.57-10.81.95-1.9998599 1.2776568-3.7292669 2.935713-5.09 4.88v6.17z" fill="#955ba5"/><path id="Shape" d="m38.48 30c-.448491-.0045776-.8390749-.3072094-.9555097-.7403469-.1164348-.4331374.069764-.8908183.4555097-1.1196531l4.56-2.66c.2305237-.133545.5048063-.1695837.7620037-.1001217.2571973.0694621.4760451.238682.6079963.4701217.2730821.4753732.1125074 1.0819888-.36 1.36-5.16 3-4.71 2.79-5.07 2.79z" fill="#3d324c"/><path id="Shape" d="m31.54 30c-.37 0-.13.08-5.07-2.79-.4725074-.2780112-.6330821-.8846268-.36-1.36.1319512-.2314397.350799-.4006596.6079963-.4701217.2571974-.069462.53148-.0334233.7620037.1001217l4.52 2.66c.3805126.2246045.5685135.6723134.4624331 1.1012469-.1060803.4289335-.4810929.7374025-.9224331.7587531z" fill="#3d324c"/><path id="Shape" d="m39.66 46c-3.17 0-2.47.28-3.83-1.76-.1857617-.2764295-.4969525-.4422366-.83-.4422366s-.6442383.1658071-.83.4422366c-.22.33 0 .08-.87 1.32-.1862704.2755788-.4973739.4405011-.83.44h-2.13c-.3153547-.0022136-.6111879-.1530554-.7981935-.4069893s-.2432694-.5812027-.1518065-.8830107l3-9.93c.130575-.3475306.044373-.7393579-.22-1-1.1518471-1.1409881-1.5010275-2.8644207-.8841325-4.3637693.6168949-1.4993485 2.077835-2.4780215 3.6991325-2.4780215s3.0822376.978673 3.6991325 2.4780215c.616895 1.4993486.2677146 3.2227812-.8841325 4.3637693-.2678845.2584013-.3580737.6505283-.23 1l3 9.93c.089825.2952177.0383245.6153706-.139552.8675253-.1778766.2521547-.4622039.4080654-.770448.4224747z" fill="#f3d55b"/><path id="Shape" d="m36 40v4.5l-.17-.26c-.1857617-.2764295-.4969525-.4422366-.83-.4422366s-.6442383.1658071-.83.4422366l-.17.26v-4.5c0-.5522847.4477153-1 1-1s1 .4477153 1 1z" fill="#f0c419"/><g fill="#955ba5"><path id="Shape" d="m59 3c0 1.65685425-1.3431458 3-3 3s-3-1.34314575-3-3 1.3431458-3 3-3h2c.5522847 0 1 .44771525 1 1z"/><path id="Shape" d="m53.27 15.17c-.8778318.8784934-2.198475 1.1415735-3.3459393.6665314s-1.895696-1.5946218-1.895696-2.8365314.7482317-2.3614893 1.895696-2.8365314c1.1474643-.47504209 2.4681075-.21196198 3.3459393.6665314l1.43 1.43c.1987308.188794.3112511.4508885.3112511.725s-.1125203.536206-.3112511.725z"/><path id="Shape" d="m13 3c0 1.65685425 1.3431458 3 3 3s3-1.34314575 3-3-1.3431458-3-3-3h-2c-.5522847 0-1 .44771525-1 1z"/><path id="Shape" d="m2.73 15.25c.88023015.8825669 2.20563307 1.147576 3.35755265.6713295 1.15191958-.4762464 1.9032213-1.5998427 1.9032213-2.8463295s-.75130172-2.3700831-1.9032213-2.8463295c-1.15191958-.47624653-2.4773225-.2112374-3.35755265.6713295l-1.43 1.43c-.19873082.188794-.31125113.4508885-.31125113.725s.11252031.536206.31125113.725z"/></g></g></svg>