<?xml version="1.0" encoding="utf-8"?>
<!-- Generator: Adobe Illustrator 24.0.3, SVG Export Plug-In . SVG Version: 6.00 Build 0)  -->
<svg version="1.1" id="Layer_1" xmlns="http://www.w3.org/2000/svg" xmlns:xlink="http://www.w3.org/1999/xlink" x="0px" y="0px"
	 viewBox="0 0 25 24" style="enable-background:new 0 0 25 24;" xml:space="preserve">
<style type="text/css">
	.st0{fill-rule:evenodd;clip-rule:evenodd;fill:#CFD8DC;}
</style>
<path class="st0" d="M12.9,4.5H6.7c-2.6,0-4.3,1.7-4.3,4.2v7c0,2.5,1.7,4.2,4.3,4.2h6.3c2.4,0,4.1-1.5,4.3-3.8l2.6,1.1l0.1,0
	c1.2,0.4,2.4-0.5,2.4-1.7V8.9l0-0.1c-0.1-1.2-1.3-2-2.5-1.5l-2.6,1.1C17.1,6,15.4,4.5,12.9,4.5z M15.8,9.4
	C15.8,9.4,15.8,9.4,15.8,9.4V15c0,0,0,0,0,0.1v0.7c0,1.6-1.1,2.7-2.8,2.7H6.7c-1.7,0-2.8-1.1-2.8-2.7v-7C3.9,7.1,4.9,6,6.7,6h6.3
	c1.7,0,2.8,1.1,2.8,2.7V9.4z M17.3,14.5V9.9l3.2-1.3l0.1,0c0.2,0,0.4,0.1,0.4,0.3v6.6l0,0.1c0,0.2-0.2,0.3-0.4,0.2L17.3,14.5z"/>
</svg>
