<?xml version="1.0" encoding="utf-8"?>
<!-- Generator: Adobe Illustrator 24.0.3, SVG Export Plug-In . SVG Version: 6.00 Build 0)  -->
<svg version="1.1" id="Layer_1" xmlns="http://www.w3.org/2000/svg" xmlns:xlink="http://www.w3.org/1999/xlink" x="0px" y="0px"
	 viewBox="0 0 25 24" style="enable-background:new 0 0 25 24;" xml:space="preserve">
<style type="text/css">
	.st0{fill-rule:evenodd;clip-rule:evenodd;fill:#64B5F6;}
</style>
<path class="st0" d="M6.5,4.5h5.8c2.4,0,4.1,1.7,4.1,4.1v6.9c0,2.4-1.7,4.1-4.1,4.1H6.5c-2.4,0-4.1-1.7-4.1-4.1V8.6
	C2.4,6.2,4.1,4.5,6.5,4.5z M20.3,6.9c0.4-0.2,1-0.2,1.4,0.1c0.4,0.3,0.7,0.7,0.7,1.2v7.7c0,0.5-0.2,1-0.7,1.2
	c-0.2,0.1-0.5,0.2-0.7,0.2c-0.2,0-0.4-0.1-0.6-0.2l-1.5-0.7c-0.5-0.3-0.9-0.8-0.9-1.5V9.1c0-0.6,0.3-1.2,0.9-1.5L20.3,6.9z"/>
</svg>
