<?xml version="1.0" encoding="utf-8"?>
<!-- Generator: Adobe Illustrator 24.0.3, SVG Export Plug-In . SVG Version: 6.00 Build 0)  -->
<svg version="1.1" id="Layer_1" xmlns="http://www.w3.org/2000/svg" xmlns:xlink="http://www.w3.org/1999/xlink" x="0px" y="0px"
	 viewBox="0 0 29 28" style="enable-background:new 0 0 29 28;" xml:space="preserve">
<style type="text/css">
	.st0{fill:#6469EE;}
	.st1{fill:#1B2CCF;}
	.st2{fill:#081591;}
</style>
<g>
	<path class="st0" d="M14.5,10.4V7.5h-1.2c-0.1-0.5-0.3-1-0.6-1.4l0.9-0.8l-2.1-2.1L10.5,4C10,3.7,9.6,3.5,9,3.4V2.2H6v1.2
		C5.5,3.6,5,3.8,4.5,4L3.6,3.2L1.5,5.2l0.9,0.8C2.1,6.5,1.9,7,1.8,7.5H0.5v2.9h1.3c0.1,0.5,0.3,1,0.6,1.4l-0.9,0.8l2.1,2.1l0.9-0.8
		c0.5,0.3,1,0.5,1.5,0.6v1.2h3v-1.2c0.5-0.1,1-0.3,1.5-0.6l0.9,0.8l2.1-2.1l-0.9-0.8c0.3-0.4,0.5-0.9,0.6-1.4L14.5,10.4L14.5,10.4z
		 M11.5,9.8h-0.7c-0.1,0.3-0.2,0.6-0.3,0.8l0.5,0.5l-1.2,1.2l-0.5-0.5C9,11.9,8.7,12,8.4,12.1v0.7H6.6v-0.7
		c-0.3-0.1-0.6-0.2-0.8-0.3l-0.5,0.5l-1.2-1.2l0.5-0.5C4.4,10.3,4.3,10,4.2,9.8H3.5V8.1h0.7c0.1-0.3,0.2-0.6,0.3-0.8L4.1,6.8
		l1.2-1.2l0.5,0.5C6.1,6,6.3,5.9,6.6,5.8V5.1h1.7v0.7C8.7,5.9,9,6,9.2,6.1l0.5-0.5L11,6.8l-0.5,0.5c0.2,0.3,0.3,0.5,0.3,0.8h0.7V9.8
		z"/>
	<path class="st1" d="M28.5,7.5V4.8h-1.1c-0.1-0.5-0.3-0.9-0.6-1.3l0.8-0.8l-2-1.9l-0.8,0.8c-0.4-0.2-0.9-0.4-1.4-0.5V0h-2.8v1.1
		c-0.5,0.1-0.9,0.3-1.4,0.5l-0.8-0.8l-2,1.9l0.8,0.8c-0.2,0.4-0.4,0.8-0.6,1.3h-1.1v2.7h1.1c0.1,0.5,0.3,0.9,0.6,1.3l-0.8,0.8l2,1.9
		l0.8-0.8c0.4,0.2,0.9,0.4,1.4,0.5v1.1h2.8v-1.1c0.5-0.1,0.9-0.3,1.4-0.5l0.8,0.8l2-1.9l-0.8-0.8c0.2-0.4,0.4-0.8,0.6-1.3L28.5,7.5
		L28.5,7.5z M25.7,6.9h-0.7c-0.1,0.3-0.2,0.5-0.3,0.7l0.5,0.4l-1.1,1.1l-0.5-0.4C23.4,8.9,23.1,9,22.9,9v0.6h-1.6V9
		C21,9,20.7,8.9,20.5,8.7L20,9.2l-1.1-1.1l0.5-0.4c-0.1-0.2-0.2-0.5-0.3-0.7h-0.7V5.4h0.7c0.1-0.3,0.2-0.5,0.3-0.7l-0.5-0.4L20,3.1
		l0.5,0.4c0.2-0.1,0.5-0.2,0.8-0.3V2.6h1.6v0.6c0.3,0.1,0.5,0.2,0.8,0.3l0.5-0.4l1.1,1.1l-0.5,0.4c0.1,0.2,0.2,0.5,0.3,0.7h0.7
		L25.7,6.9L25.7,6.9z"/>
	<path class="st2" d="M24.6,22.7v-2.9h-1.2c-0.1-0.5-0.3-1-0.6-1.4l0.9-0.8l-2.1-2.1l-0.9,0.8c-0.5-0.3-1-0.5-1.5-0.6v-1.2h-3v1.2
		c-0.5,0.1-1,0.3-1.5,0.6l-0.9-0.8l-2.2,2.1l0.9,0.8c-0.3,0.4-0.5,0.9-0.6,1.4h-1.3v2.9h1.3c0.1,0.5,0.3,1,0.6,1.4L11.6,25l2.2,2.1
		l0.9-0.8c0.5,0.3,1,0.5,1.5,0.6V28h3v-1.2c0.5-0.1,1-0.3,1.5-0.6l0.9,0.8l2.1-2.1l-0.9-0.8c0.3-0.4,0.5-0.9,0.6-1.4L24.6,22.7
		L24.6,22.7z M21.6,22.1h-0.7c-0.1,0.3-0.2,0.6-0.3,0.8l0.5,0.5l-1.2,1.2l-0.5-0.5c-0.3,0.1-0.5,0.3-0.8,0.3v0.7h-1.7v-0.7
		c-0.3-0.1-0.6-0.2-0.8-0.3l-0.5,0.5l-1.2-1.2l0.5-0.5c-0.2-0.3-0.3-0.5-0.3-0.8h-0.7v-1.7h0.7c0.1-0.3,0.2-0.6,0.3-0.8l-0.5-0.5
		l1.2-1.2l0.5,0.5c0.3-0.1,0.5-0.3,0.8-0.3v-0.7h1.7v0.7c0.3,0.1,0.6,0.2,0.8,0.3l0.5-0.5l1.2,1.2l-0.5,0.5c0.2,0.3,0.3,0.5,0.3,0.8
		h0.7V22.1z"/>
</g>
</svg>
