<?xml version="1.0" encoding="utf-8"?>
<!-- Generator: Adobe Illustrator 24.0.3, SVG Export Plug-In . SVG Version: 6.00 Build 0)  -->
<svg version="1.1" id="Layer_1" xmlns="http://www.w3.org/2000/svg" xmlns:xlink="http://www.w3.org/1999/xlink" x="0px" y="0px"
	 viewBox="0 0 25 32" style="enable-background:new 0 0 25 32;" xml:space="preserve">
<style type="text/css">
	.st0{fill:none;stroke:#64B5F6;stroke-width:1.4609;stroke-linecap:round;stroke-linejoin:round;}
	.st1{fill:#64B5F6;}
</style>
<path class="st0" d="M7.2,13.2c-0.5-0.5-0.8-1-1.1-1.6C5.9,11,5.7,10.3,5.7,9.7c0-0.6,0.1-1.3,0.4-1.9c0.2-0.6,0.6-1.1,1.1-1.6"/>
<path class="st0" d="M14.2,6.2c0.5,0.5,0.8,1,1.1,1.6c0.2,0.6,0.4,1.2,0.4,1.9c0,0.6-0.1,1.3-0.4,1.9c-0.2,0.6-0.6,1.1-1.1,1.6"/>
<path class="st0" d="M5.3,15.1c-0.7-0.7-1.3-1.6-1.7-2.5C3.2,11.7,3,10.7,3,9.7c0-1,0.2-2,0.6-2.9C4,5.8,4.5,5,5.3,4.2"/>
<path class="st0" d="M16.1,4.2c0.7,0.7,1.3,1.6,1.7,2.5c0.4,0.9,0.6,1.9,0.6,2.9c0,1-0.2,2-0.6,2.9c-0.4,0.9-1,1.8-1.7,2.5"/>
<path class="st1" d="M16.3,17.9v-1.1c0-0.5-0.2-0.9-0.5-1.3c-0.3-0.3-0.8-0.5-1.3-0.5c-0.5,0-0.9,0.2-1.3,0.5
	c-0.3,0.3-0.5,0.8-0.5,1.3V11c0-0.5-0.2-0.9-0.5-1.3c-0.3-0.3-0.8-0.5-1.3-0.5c-0.5,0-0.9,0.2-1.3,0.5C9.2,10.1,9,10.5,9,11v11.1
	l-2-3.5c-0.1-0.2-0.3-0.4-0.5-0.5c-0.2-0.1-0.4-0.3-0.6-0.3s-0.5-0.1-0.7,0c-0.2,0-0.5,0.1-0.7,0.2c-0.2,0.1-0.4,0.3-0.5,0.5
	c-0.1,0.2-0.3,0.4-0.3,0.6c-0.1,0.2-0.1,0.5,0,0.7c0,0.2,0.1,0.5,0.2,0.7c3,6.3,4.8,8.5,8.8,8.5c1,0,1.9-0.2,2.8-0.6
	c0.9-0.4,1.7-0.9,2.4-1.6c0.7-0.7,1.2-1.5,1.6-2.4c0.4-0.9,0.6-1.8,0.6-2.8v-3.7c0-0.5-0.2-0.9-0.5-1.3c-0.3-0.3-0.8-0.5-1.3-0.5
	c-0.5,0-0.9,0.2-1.3,0.5C16.5,17,16.3,17.5,16.3,17.9z"/>
</svg>
