<?xml version="1.0" encoding="utf-8"?>
<!-- Generator: Adobe Illustrator 24.0.3, SVG Export Plug-In . SVG Version: 6.00 Build 0)  -->
<svg version="1.1" id="Layer_1" xmlns="http://www.w3.org/2000/svg" xmlns:xlink="http://www.w3.org/1999/xlink" x="0px" y="0px"
	 viewBox="0 0 19 24" style="enable-background:new 0 0 19 24;" xml:space="preserve">
<style type="text/css">
	.st0{fill-rule:evenodd;clip-rule:evenodd;fill:#CFD8DC;}
</style>
<path class="st0" d="M6,1.7c0.2,0.2,0.1,0.4,0,0.5C5.6,2.6,5.3,3,5.2,3.5C5,3.9,4.9,4.4,4.9,4.9s0.1,1,0.3,1.4
	C5.3,6.7,5.6,7.1,6,7.5C6.1,7.6,6.1,7.9,6,8C5.8,8.2,5.6,8.2,5.4,8C5,7.6,4.7,7.1,4.4,6.6C4.2,6,4.1,5.5,4.1,4.9s0.1-1.2,0.3-1.7
	c0.2-0.5,0.6-1,1-1.4C5.6,1.6,5.8,1.6,6,1.7z"/>
<path class="st0" d="M11.2,1.7c0.2-0.2,0.4-0.2,0.5,0c0.4,0.4,0.7,0.9,1,1.4C12.9,3.7,13,4.3,13,4.9S12.9,6,12.7,6.6
	c-0.2,0.5-0.6,1-1,1.4c-0.2,0.2-0.4,0.1-0.5,0c-0.2-0.2-0.2-0.4,0-0.5c0.3-0.3,0.6-0.7,0.8-1.2c0.2-0.4,0.3-0.9,0.3-1.4
	s-0.1-1-0.3-1.4c-0.2-0.4-0.5-0.9-0.8-1.2C11,2.1,11,1.9,11.2,1.7z"/>
<path class="st0" d="M4.4,0.1c0.2,0.2,0.1,0.4,0,0.5c-0.6,0.6-1,1.2-1.3,1.9C2.8,3.3,2.6,4.1,2.6,4.9c0,0.8,0.2,1.6,0.5,2.3
	c0.3,0.7,0.7,1.4,1.3,1.9c0.2,0.2,0.2,0.4,0,0.5C4.2,9.8,4,9.8,3.8,9.6C3.2,9,2.7,8.3,2.4,7.4S1.8,5.7,1.8,4.9C1.8,4,2,3.1,2.4,2.3
	s0.8-1.6,1.5-2.2C4,0,4.2,0,4.4,0.1z"/>
<path class="st0" d="M12.8,0.1c0.2-0.2,0.4-0.2,0.5,0c0.6,0.6,1.1,1.4,1.5,2.2c0.3,0.8,0.5,1.7,0.5,2.6c0,0.9-0.2,1.8-0.5,2.6
	c-0.3,0.8-0.8,1.6-1.5,2.2c-0.2,0.2-0.4,0.1-0.5,0c-0.2-0.2-0.1-0.4,0-0.5c0.6-0.6,1-1.2,1.3-1.9c0.3-0.7,0.5-1.5,0.5-2.3
	s-0.2-1.6-0.5-2.3c-0.3-0.7-0.7-1.4-1.3-1.9C12.6,0.5,12.6,0.3,12.8,0.1z"/>
<path class="st0" d="M7,4c0.4-0.4,1-0.7,1.7-0.7S9.9,3.6,10.4,4c0.4,0.4,0.7,1,0.7,1.7v6.2c0,0.3-0.2,0.5-0.5,0.5
	c-0.3,0-0.5-0.2-0.5-0.5V5.7c0-0.3-0.1-0.7-0.4-0.9S9,4.4,8.7,4.4C8.3,4.4,8,4.6,7.8,4.8C7.6,5.1,7.4,5.4,7.4,5.7v11
	c0,0.2-0.2,0.5-0.4,0.5c-0.2,0.1-0.5,0-0.6-0.3l-2-3.4c-0.1-0.1-0.2-0.3-0.3-0.4C4,13,3.8,13,3.6,12.9c-0.2,0-0.3-0.1-0.5,0
	c-0.2,0-0.3,0.1-0.5,0.2c-0.1,0.1-0.3,0.2-0.4,0.3c-0.1,0.1-0.2,0.3-0.2,0.4c0,0.2-0.1,0.3,0,0.5c0,0.2,0.1,0.3,0.2,0.5c0,0,0,0,0,0
	c1.5,3.1,2.6,5.1,3.9,6.4c1.2,1.2,2.5,1.7,4.4,1.7c0.9,0,1.8-0.2,2.6-0.5c0.8-0.3,1.6-0.8,2.2-1.5c0.6-0.6,1.1-1.4,1.5-2.2
	c0.3-0.8,0.5-1.7,0.5-2.6v-3.6c0-0.3-0.1-0.7-0.4-0.9c-0.2-0.2-0.6-0.4-0.9-0.4c-0.3,0-0.7,0.1-0.9,0.4c-0.2,0.2-0.4,0.6-0.4,0.9
	c0,0.3-0.2,0.5-0.5,0.5s-0.5-0.2-0.5-0.5c0-0.6,0.2-1.2,0.7-1.7c0.4-0.4,1-0.7,1.7-0.7c0.6,0,1.2,0.2,1.7,0.7c0.4,0.4,0.7,1,0.7,1.7
	v3.6c0,1-0.2,2-0.6,3c-0.4,0.9-1,1.8-1.7,2.5c-0.7,0.7-1.6,1.3-2.5,1.7c-0.9,0.4-2,0.6-3,0.6c-2.1,0-3.7-0.6-5.2-2
	c-1.4-1.4-2.6-3.6-4.1-6.7C1.1,15.1,1,14.8,1,14.5c0-0.3,0-0.6,0.1-0.9c0.1-0.3,0.2-0.6,0.4-0.8c0.2-0.2,0.4-0.5,0.7-0.6
	C2.4,12,2.7,11.9,3,11.8c0.3,0,0.6,0,0.9,0.1c0.3,0.1,0.6,0.2,0.8,0.4C5,12.5,5.2,12.7,5.4,13l1,1.7v-9C6.3,5.1,6.6,4.5,7,4z"/>
<path class="st0" d="M10.6,9.8c0.4-0.4,1-0.7,1.7-0.7c0.6,0,1.2,0.2,1.7,0.7c0.4,0.4,0.7,1,0.7,1.7l0,1.1c0,0.3-0.2,0.5-0.5,0.5
	s-0.5-0.2-0.5-0.5l0-1.1c0-0.3-0.1-0.7-0.4-0.9c-0.2-0.2-0.6-0.4-0.9-0.4c-0.3,0-0.7,0.1-0.9,0.4c-0.2,0.2-0.4,0.6-0.4,0.9l0,0.4
	c0,0.3-0.2,0.5-0.5,0.5c-0.3,0-0.5-0.2-0.5-0.5l0-0.4C10,10.9,10.2,10.3,10.6,9.8z"/>
</svg>
