<svg width="32" height="32" viewBox="0 0 32 32" fill="none" xmlns="http://www.w3.org/2000/svg">
<path d="M1.73828 23.5158H7.22786C11.7279 23.5158 14.3737 20.7241 14.3737 15.9637V15.9429C14.3737 11.1929 11.707 8.48454 7.22786 8.48454H1.73828V23.5158ZM4.42578 21.245V10.7554H6.94661C9.9362 10.7554 11.6341 12.5991 11.6341 15.9533V15.9741C11.6341 19.4012 9.96745 21.245 6.94661 21.245H4.42578Z" fill="#34C759"/>
<path d="M23.1341 23.7762C27.5299 23.7762 30.2591 20.7866 30.2591 16.0054V15.9845C30.2591 11.2137 27.5195 8.22412 23.1341 8.22412C18.7591 8.22412 15.9987 11.2137 15.9987 15.9845V16.0054C15.9987 20.7866 18.7383 23.7762 23.1341 23.7762ZM23.1341 21.4429C20.4466 21.4429 18.7383 19.3491 18.7383 16.0054V15.9845C18.7383 12.6408 20.457 10.5575 23.1341 10.5575C25.8216 10.5575 27.5299 12.6512 27.5299 15.9845V16.0054C27.5299 19.3179 25.8529 21.4429 23.1341 21.4429Z" fill="#34C759"/>
</svg>
