<svg width="51" height="53" viewBox="0 0 51 53" fill="none" xmlns="http://www.w3.org/2000/svg">
<ellipse cx="45.2635" cy="4.46511" rx="1.91355" ry="1.91512" fill="#68CCEA"/>
<ellipse cx="43.7443" cy="14.4228" rx="4.21931" ry="4.22278" fill="#68CCEA"/>
<g clip-path="url(#clip0)">
<path d="M22.4379 6.87463H32.1949V9.50574H22.4379V6.87463Z" fill="#787878"/>
<path d="M21.8722 3.69537H20.3253C18.4782 3.69537 16.9807 5.19282 16.9807 7.03997V15.7546H25.2167V7.03997C25.2168 5.19274 23.7194 3.69537 21.8722 3.69537V3.69537Z" fill="#DFDFDF"/>
<path d="M22.3819 3.73423C20.7772 3.98066 19.5484 5.36693 19.5484 7.04001V15.754H16.9811V7.04001C16.9811 5.19303 18.4786 3.6955 20.3256 3.6955H21.8726C22.0456 3.6955 22.2154 3.70868 22.3819 3.73423V3.73423Z" fill="#C5C5C5"/>
<path d="M33.7608 22.6402V40.5273C30.2341 43.177 25.8495 44.7479 21.099 44.7479C16.3484 44.7479 11.9638 43.177 8.43713 40.5273V22.6402C8.43713 16.9608 13.041 12.3561 18.7212 12.3561H23.4767C29.1569 12.3561 33.7608 16.9608 33.7608 22.6402V22.6402Z" fill="#D6D6D6"/>
<path d="M25.4292 12.5407C20.6836 13.4531 17.0976 17.6283 17.0976 22.6402V44.3687C13.894 43.7539 10.9484 42.4138 8.43713 40.5273V22.6402C8.43713 16.9608 13.041 12.3561 18.7212 12.3561H23.4775C24.1451 12.3561 24.797 12.4195 25.4292 12.5407V12.5407Z" fill="#ABABAB"/>
<path d="M36.3607 3.84265L28.1385 5.23015V11.1501L36.3607 12.5376V3.84265Z" fill="#A5A5A5"/>
<path d="M36.3605 9.6159V12.5376L28.1385 11.1505V9.16095L36.3605 9.6159Z" fill="#797979"/>
<path d="M36.3606 13.4854C35.8371 13.4854 35.4128 13.0611 35.4128 12.5376V3.84264C35.4128 3.31921 35.8371 2.89484 36.3606 2.89484C36.8842 2.89484 37.3084 3.31921 37.3084 3.84264V12.5376C37.3084 13.0611 36.8841 13.4854 36.3606 13.4854Z" fill="#787878"/>
<path d="M24.9075 35.7902C22.4219 35.7902 20.3998 33.7681 20.3998 31.2826C20.3998 28.7971 22.4219 26.775 24.9075 26.775C27.3929 26.775 29.415 28.7971 29.415 31.2826C29.415 33.7681 27.3929 35.7902 24.9075 35.7902ZM24.9075 28.2714C23.2471 28.2714 21.8962 29.6222 21.8962 31.2826C21.8962 32.943 23.2471 34.2938 24.9075 34.2938C26.5678 34.2938 27.9186 32.943 27.9186 31.2826C27.9186 29.6222 26.5678 28.2714 24.9075 28.2714Z" fill="#26457D"/>
<path d="M27.2614 23.7848C28.9416 23.7848 30.3036 22.4228 30.3036 20.7426C30.3036 19.0625 28.9416 17.7004 27.2614 17.7004C25.5813 17.7004 24.2192 19.0625 24.2192 20.7426C24.2192 22.4228 25.5813 23.7848 27.2614 23.7848Z" fill="#F3F3F3"/>
<path d="M16.7082 11.8578C18.4066 11.8578 19.7834 10.481 19.7834 8.78259C19.7834 7.08417 18.4066 5.70734 16.7082 5.70734C15.0098 5.70734 13.6329 7.08417 13.6329 8.78259C13.6329 10.481 15.0098 11.8578 16.7082 11.8578Z" fill="#7E7E7E"/>
<path d="M16.7084 10.2661C17.5277 10.2661 18.1919 9.60192 18.1919 8.78259C18.1919 7.96327 17.5277 7.29907 16.7084 7.29907C15.889 7.29907 15.2249 7.96327 15.2249 8.78259C15.2249 9.60192 15.889 10.2661 16.7084 10.2661Z" fill="#C9C9C9"/>
<path d="M12.75 27.8906C12.75 27.2744 13.2495 26.775 13.8656 26.775H15.6083C16.8138 26.775 17.7535 27.1646 18.4273 27.9439C19.1049 28.7232 19.4438 29.8159 19.4438 31.222C19.4438 32.6322 19.1068 33.7311 18.4329 34.5186C17.7591 35.3062 16.8175 35.7 15.6083 35.7H13.8656C13.2495 35.7 12.75 35.2005 12.75 34.5843V27.8906ZM14.0079 27.9687V34.5001H15.4904C16.3514 34.5001 17.0103 34.2197 17.4671 33.6589C17.9275 33.0981 18.1578 32.2899 18.1578 31.2344C18.1578 30.1829 17.9275 29.3768 17.4671 28.816C17.0066 28.2511 16.3477 27.9687 15.4904 27.9687H14.0079Z" fill="#26457D"/>
<ellipse cx="40.8" cy="7.65105" rx="1.275" ry="1.27605" fill="#68CCEA"/>
</g>
<ellipse cx="42.7131" cy="0.63855" rx="0.638024" ry="0.63855" fill="#68CCEA"/>
<circle cx="48.45" cy="8.925" r="2.55" fill="#68CCEA"/>
<g filter="url(#filter0_bf)">
<ellipse cx="25.5" cy="48.7479" rx="20" ry="2" fill="#E0E0E0"/>
</g>
<defs>
<filter id="filter0_bf" x="-34.5" y="6.74786" width="120" height="84" filterUnits="userSpaceOnUse" color-interpolation-filters="sRGB">
<feFlood flood-opacity="0" result="BackgroundImageFix"/>
<feGaussianBlur in="BackgroundImage" stdDeviation="20"/>
<feComposite in2="SourceAlpha" operator="in" result="effect1_backgroundBlur"/>
<feBlend mode="normal" in="SourceGraphic" in2="effect1_backgroundBlur" result="shape"/>
<feGaussianBlur stdDeviation="1" result="effect2_foregroundBlur"/>
</filter>
<clipPath id="clip0">
<rect width="42.1979" height="42.1979" fill="white" transform="translate(0 2.54999)"/>
</clipPath>
</defs>
</svg>
