<svg width="51" height="53" viewBox="0 0 51 53" fill="none" xmlns="http://www.w3.org/2000/svg">
<ellipse cx="45.2635" cy="4.46511" rx="1.91355" ry="1.91512" fill="#68CCEA"/>
<ellipse cx="43.7443" cy="14.4228" rx="4.21931" ry="4.22278" fill="#68CCEA"/>
<g clip-path="url(#clip0)">
<path d="M22.4377 6.87463H32.1948V9.50574H22.4377V6.87463Z" fill="#26457D"/>
<path d="M21.872 3.69537H20.3251C18.4779 3.69537 16.9805 5.19282 16.9805 7.03997V15.7546H25.2165V7.03997C25.2165 5.19274 23.7192 3.69537 21.872 3.69537V3.69537Z" fill="#F9F6F9"/>
<path d="M22.3818 3.73423C20.7771 3.98066 19.5483 5.36693 19.5483 7.04001V15.754H16.981V7.04001C16.981 5.19303 18.4785 3.6955 20.3255 3.6955H21.8724C22.0455 3.6955 22.2153 3.70868 22.3818 3.73423V3.73423Z" fill="#DDDAEC"/>
<path d="M33.7607 22.6402V40.5273C30.234 43.177 25.8494 44.7479 21.0988 44.7479C16.3483 44.7479 11.9637 43.177 8.43701 40.5273V22.6402C8.43701 16.9608 13.0409 12.3561 18.7211 12.3561H23.4766C29.1568 12.3561 33.7607 16.9608 33.7607 22.6402V22.6402Z" fill="#FF6326"/>
<path d="M25.4291 12.5407C20.6835 13.4531 17.0975 17.6283 17.0975 22.6402V44.3687C13.8939 43.7539 10.9483 42.4138 8.43701 40.5273V22.6402C8.43701 16.9608 13.0409 12.3561 18.7211 12.3561H23.4774C24.145 12.3561 24.7969 12.4195 25.4291 12.5407V12.5407Z" fill="#FF4340"/>
<path d="M36.3606 3.84265L28.1384 5.23015V11.1501L36.3606 12.5376V3.84265Z" fill="#30579D"/>
<path d="M36.3604 9.6159V12.5376L28.1384 11.1505V9.16095L36.3604 9.6159Z" fill="#26457D"/>
<path d="M36.3605 13.4854C35.837 13.4854 35.4127 13.0611 35.4127 12.5376V3.84264C35.4127 3.31921 35.837 2.89484 36.3605 2.89484C36.884 2.89484 37.3083 3.31921 37.3083 3.84264V12.5376C37.3083 13.0611 36.884 13.4854 36.3605 13.4854Z" fill="#26457D"/>
<path opacity="0.7" d="M24.9073 35.7902C22.4218 35.7902 20.3997 33.7681 20.3997 31.2826C20.3997 28.7971 22.4218 26.775 24.9073 26.775C27.3928 26.775 29.4148 28.7971 29.4148 31.2826C29.4148 33.7681 27.3928 35.7902 24.9073 35.7902ZM24.9073 28.2714C23.2469 28.2714 21.8961 29.6222 21.8961 31.2826C21.8961 32.943 23.2469 34.2938 24.9073 34.2938C26.5677 34.2938 27.9185 32.943 27.9185 31.2826C27.9185 29.6222 26.5677 28.2714 24.9073 28.2714Z" fill="#26457D"/>
<path d="M27.2612 23.7848C28.9414 23.7848 30.3034 22.4228 30.3034 20.7426C30.3034 19.0625 28.9414 17.7004 27.2612 17.7004C25.581 17.7004 24.219 19.0625 24.219 20.7426C24.219 22.4228 25.581 23.7848 27.2612 23.7848Z" fill="#FFE3DC"/>
<path d="M16.7081 11.8578C18.4065 11.8578 19.7833 10.481 19.7833 8.78259C19.7833 7.08417 18.4065 5.70734 16.7081 5.70734C15.0096 5.70734 13.6328 7.08417 13.6328 8.78259C13.6328 10.481 15.0096 11.8578 16.7081 11.8578Z" fill="#DD5790"/>
<path d="M16.7081 10.2661C17.5275 10.2661 18.1916 9.60192 18.1916 8.78259C18.1916 7.96327 17.5275 7.29907 16.7081 7.29907C15.8888 7.29907 15.2246 7.96327 15.2246 8.78259C15.2246 9.60192 15.8888 10.2661 16.7081 10.2661Z" fill="#BED8FB"/>
<path d="M12.75 27.8906C12.75 27.2744 13.2495 26.775 13.8656 26.775H15.6083C16.8138 26.775 17.7535 27.1646 18.4273 27.9439C19.1049 28.7232 19.4438 29.8159 19.4438 31.222C19.4438 32.6322 19.1068 33.7311 18.4329 34.5186C17.7591 35.3062 16.8175 35.7 15.6083 35.7H13.8656C13.2495 35.7 12.75 35.2005 12.75 34.5843V27.8906ZM14.0079 27.9687V34.5001H15.4904C16.3514 34.5001 17.0103 34.2197 17.4671 33.6589C17.9275 33.0981 18.1578 32.2899 18.1578 31.2344C18.1578 30.1829 17.9275 29.3768 17.4671 28.816C17.0066 28.2511 16.3477 27.9687 15.4904 27.9687H14.0079Z" fill="#26457D" fill-opacity="0.7"/>
<ellipse cx="40.8" cy="7.65105" rx="1.275" ry="1.27605" fill="#68CCEA"/>
</g>
<ellipse cx="42.7131" cy="0.63855" rx="0.638024" ry="0.63855" fill="#68CCEA"/>
<circle cx="48.45" cy="8.925" r="2.55" fill="#68CCEA"/>
<g filter="url(#filter0_bf)">
<ellipse cx="25.5" cy="48.7479" rx="20" ry="2" fill="#E0E0E0"/>
</g>
<defs>
<filter id="filter0_bf" x="-34.5" y="6.74786" width="120" height="84" filterUnits="userSpaceOnUse" color-interpolation-filters="sRGB">
<feFlood flood-opacity="0" result="BackgroundImageFix"/>
<feGaussianBlur in="BackgroundImage" stdDeviation="20"/>
<feComposite in2="SourceAlpha" operator="in" result="effect1_backgroundBlur"/>
<feBlend mode="normal" in="SourceGraphic" in2="effect1_backgroundBlur" result="shape"/>
<feGaussianBlur stdDeviation="1" result="effect2_foregroundBlur"/>
</filter>
<clipPath id="clip0">
<rect width="42.1979" height="42.1979" fill="white" transform="translate(0 2.54999)"/>
</clipPath>
</defs>
</svg>
