<svg width="45" height="52" viewBox="0 0 45 52" fill="none" xmlns="http://www.w3.org/2000/svg">
<g clip-path="url(#clip0)">
<path d="M23.9728 0.552279C23.2364 -0.184093 21.9476 -0.184093 21.2113 0.552279C19.5544 2.39325 5.93091 18.9623 5.93091 27.431C5.93091 36.636 13.2949 44 22.4999 44C31.705 44 39.069 36.636 39.069 27.431C39.069 18.9623 25.4456 2.39325 23.9728 0.552279Z" fill="#D5D5D5"/>
<path d="M37.0439 20.2511C34.2824 20.9874 33.9142 23.7489 30.4163 23.7489C26.3661 23.7489 26.3661 20.0669 22.5 20.0669C18.6339 20.0669 18.4498 23.7489 14.5837 23.7489C11.0858 23.7489 10.7175 20.9874 7.95604 20.2511C6.85144 22.4603 6.11507 24.8535 5.93091 27.431C5.93091 27.9833 5.93091 28.7196 6.11498 29.2719C6.29905 29.2719 6.48321 29.2719 6.66728 29.2719C10.7175 29.2719 10.7175 32.954 14.5836 32.954C18.4497 32.954 18.6337 29.2719 22.4998 29.2719C26.366 29.2719 26.55 32.954 30.4161 32.954C34.2822 32.954 34.4665 29.2719 38.3326 29.2719C38.5167 29.2719 38.7008 29.2719 38.8849 29.2719C38.8849 28.7196 39.069 27.9833 39.069 27.431C38.8849 24.8535 38.1485 22.4603 37.0439 20.2511Z" fill="#B8B8B8"/>
<path d="M30.4164 32.954C26.3662 32.954 26.3662 29.272 22.5001 29.272C18.634 29.272 18.4498 32.954 14.5837 32.954C10.7176 32.954 10.5335 29.272 6.66741 29.272C6.48334 29.272 6.29918 29.272 6.11511 29.272C7.21971 38.2929 15.3202 44.9205 24.5251 43.8159C32.2573 42.8954 38.1486 36.8201 39.069 29.272C38.8849 29.272 38.7008 29.272 38.5167 29.272C34.4665 29.272 34.4665 32.954 30.4164 32.954Z" fill="url(#paint0_linear)"/>
<ellipse cx="38.78" cy="3.96001" rx="1.32" ry="1.32" fill="#AB92F0"/>
<ellipse cx="42.74" cy="20.24" rx="1.32" ry="1.32" fill="#AB92F0"/>
<ellipse cx="3.13995" cy="18.92" rx="1.32" ry="1.32" fill="#AB92F0"/>
<ellipse cx="34.8201" cy="8.79998" rx="1.76" ry="1.76" fill="#AB92F0"/>
<ellipse cx="41.42" cy="11.88" rx="0.879999" ry="0.88" fill="#AB92F0"/>
<ellipse cx="38.78" cy="15.4" rx="0.879999" ry="0.88" fill="#AB92F0"/>
<ellipse cx="7.97998" cy="12.76" rx="0.88" ry="0.880001" fill="#AB92F0"/>
<circle cx="41.5" cy="26.5" r="0.5" fill="#AB92F0"/>
<ellipse cx="4.52002" cy="22.5" rx="0.5" ry="0.499999" fill="#AB92F0"/>
<path d="M18.1797 21.3203C18.6328 21.8359 18.8594 22.5339 18.8594 23.4141C18.8594 24.2943 18.6328 24.9948 18.1797 25.5156C17.7266 26.0365 17.1198 26.2969 16.3594 26.2969C15.599 26.2969 14.9922 26.0365 14.5391 25.5156C14.0911 24.9948 13.8672 24.2943 13.8672 23.4141C13.8672 22.5339 14.0911 21.8359 14.5391 21.3203C14.9922 20.7995 15.599 20.5391 16.3594 20.5391C17.1198 20.5391 17.7266 20.7995 18.1797 21.3203ZM16.3594 25.0703C16.651 25.0703 16.8776 24.9245 17.0391 24.6328C17.2057 24.3359 17.2891 23.9297 17.2891 23.4141C17.2891 22.8932 17.2057 22.487 17.0391 22.1953C16.8776 21.8984 16.651 21.75 16.3594 21.75C16.0729 21.75 15.8464 21.8984 15.6797 22.1953C15.5182 22.487 15.4375 22.8932 15.4375 23.4141C15.4375 23.9297 15.5182 24.3359 15.6797 24.6328C15.8464 24.9245 16.0729 25.0703 16.3594 25.0703ZM16.5156 32H14.8125L19.1797 26.0234L23.0547 20.7266H24.7422L20.4922 26.5469L16.5156 32ZM25.0156 27.1641C25.4688 27.6849 25.6953 28.3854 25.6953 29.2656C25.6953 30.1458 25.4688 30.8464 25.0156 31.3672C24.5625 31.8828 23.9557 32.1406 23.1953 32.1406C22.4349 32.1406 21.8281 31.8828 21.375 31.3672C20.9271 30.8464 20.7031 30.1458 20.7031 29.2656C20.7031 28.3854 20.9271 27.6849 21.375 27.1641C21.8281 26.6432 22.4349 26.3828 23.1953 26.3828C23.9557 26.3828 24.5625 26.6432 25.0156 27.1641ZM22.5156 30.4766C22.6823 30.7734 22.9089 30.9219 23.1953 30.9219C23.4818 30.9219 23.7083 30.7734 23.875 30.4766C24.0417 30.1797 24.125 29.7734 24.125 29.2578C24.125 28.7422 24.0417 28.3359 23.875 28.0391C23.7083 27.7422 23.4818 27.5938 23.1953 27.5938C22.9089 27.5938 22.6823 27.7422 22.5156 28.0391C22.3542 28.3359 22.2734 28.7422 22.2734 29.2578C22.2734 29.7734 22.3542 30.1797 22.5156 30.4766ZM30.7344 27.1641C31.1875 27.6849 31.4141 28.3854 31.4141 29.2656C31.4141 30.1458 31.1875 30.8464 30.7344 31.3672C30.2812 31.8828 29.6745 32.1406 28.9141 32.1406C28.1536 32.1406 27.5469 31.8828 27.0938 31.3672C26.6458 30.8464 26.4219 30.1458 26.4219 29.2656C26.4219 28.3854 26.6458 27.6849 27.0938 27.1641C27.5469 26.6432 28.1536 26.3828 28.9141 26.3828C29.6745 26.3828 30.2812 26.6432 30.7344 27.1641ZM28.2344 30.4766C28.401 30.7734 28.6276 30.9219 28.9141 30.9219C29.2005 30.9219 29.4271 30.7734 29.5938 30.4766C29.7604 30.1797 29.8438 29.7734 29.8438 29.2578C29.8438 28.7422 29.7604 28.3359 29.5938 28.0391C29.4271 27.7422 29.2005 27.5938 28.9141 27.5938C28.6276 27.5938 28.401 27.7422 28.2344 28.0391C28.0729 28.3359 27.9922 28.7422 27.9922 29.2578C27.9922 29.7734 28.0729 30.1797 28.2344 30.4766Z" fill="#F7FCFF"/>
</g>
<g filter="url(#filter0_bf)">
<ellipse cx="22.5" cy="48" rx="17" ry="2" fill="#E0E0E0"/>
</g>
<defs>
<filter id="filter0_bf" x="-34.5" y="6" width="114" height="84" filterUnits="userSpaceOnUse" color-interpolation-filters="sRGB">
<feFlood flood-opacity="0" result="BackgroundImageFix"/>
<feGaussianBlur in="BackgroundImage" stdDeviation="20"/>
<feComposite in2="SourceAlpha" operator="in" result="effect1_backgroundBlur"/>
<feBlend mode="normal" in="SourceGraphic" in2="effect1_backgroundBlur" result="shape"/>
<feGaussianBlur stdDeviation="1" result="effect2_foregroundBlur"/>
</filter>
<linearGradient id="paint0_linear" x1="3.5" y1="48" x2="39" y2="16.5" gradientUnits="userSpaceOnUse">
<stop stop-color="#767676"/>
<stop offset="1" stop-color="#C3C0C5"/>
</linearGradient>
<clipPath id="clip0">
<rect width="44" height="44" fill="white" transform="translate(0.5)"/>
</clipPath>
</defs>
</svg>
