<?xml version="1.0" encoding="utf-8"?>
<!-- Generator: Adobe Illustrator 24.0.3, SVG Export Plug-In . SVG Version: 6.00 Build 0)  -->
<svg version="1.1" id="Layer_1" xmlns="http://www.w3.org/2000/svg" xmlns:xlink="http://www.w3.org/1999/xlink" x="0px" y="0px"
	 viewBox="0 0 25 24" style="enable-background:new 0 0 25 24;" xml:space="preserve">
<style type="text/css">
	.st0{fill-rule:evenodd;clip-rule:evenodd;fill:#CFD8DC;}
</style>
<g id="Iconly_x2F_Light-outline_x2F_Home">
	<g id="Home">
		<path id="Home_2" class="st0" d="M21.2,7.7c0.7,0.5,1.1,1.3,1.2,2.1l0,0.2v8.1c0,2.1-1.7,3.8-3.7,3.9h-2c-1,0-1.7-0.8-1.8-1.7
			l0-0.1v-2.9c0-0.3-0.2-0.6-0.5-0.6l-0.1,0h-2.7c-0.3,0-0.6,0.2-0.6,0.5l0,0.1v2.9c0,0.1,0,0.1,0,0.2l0,0l0,0.1
			c-0.1,0.9-0.8,1.5-1.7,1.6l-0.1,0H7.3c-2.1,0-3.8-1.6-3.9-3.7V10c0-0.9,0.4-1.6,1-2.2l6.2-5c1.3-1,3.1-1,4.4-0.1l0.2,0.1L21.2,7.7
			z M21,18.3l0-0.2V10c0-0.4-0.2-0.8-0.5-1.1l-0.1-0.1l-6.1-4.9c-0.8-0.6-1.8-0.6-2.6-0.1l-0.2,0.1L5.4,8.8C5,9,4.8,9.4,4.8,9.8
			l0,0.2v8.1c0,1.3,1,2.4,2.4,2.5h1.9c0.2,0,0.4-0.1,0.4-0.4l0-0.2l0-0.1v-2.7c0-1.1,0.8-1.9,1.9-2h2.8c1.1,0,1.9,0.8,2,1.9v3
			c0,0.2,0.1,0.4,0.3,0.4h1.9C19.8,20.6,20.9,19.6,21,18.3z"/>
	</g>
</g>
</svg>
