<svg width="45" height="52" viewBox="0 0 45 52" fill="none" xmlns="http://www.w3.org/2000/svg">
<path d="M40.9679 23.2699H21.5341C20.8003 23.2699 20.1424 22.8908 19.7744 22.2559C19.4139 21.6339 19.4084 20.9002 19.7592 20.2429L29.4762 2.04094C29.8241 1.38914 30.4876 1 31.251 1C32.0144 1 32.6779 1.38914 33.0259 2.04094L42.7428 20.2428C43.0937 20.9002 43.0881 21.6339 42.7276 22.2559C42.3596 22.8908 41.7018 23.2699 40.9679 23.2699Z" fill="#BDBDBD"/>
<path d="M42.7428 20.2428L33.0258 2.04094C32.6778 1.38914 32.0144 1 31.251 1V23.2699H40.9679C41.7018 23.2699 42.3597 22.8908 42.7276 22.2559C43.0881 21.6339 43.0936 20.9002 42.7428 20.2428Z" fill="#9D9D9D"/>
<path d="M31.251 20.2858C30.2382 20.2858 29.4142 19.4618 29.4142 18.449C29.4142 17.4362 30.2382 16.6122 31.251 16.6122C32.2639 16.6122 33.0879 17.4362 33.0879 18.449C33.0879 19.4618 32.2639 20.2858 31.251 20.2858Z" fill="#FFF3F3"/>
<path d="M31.2511 14.7754C30.2382 14.7754 29.4142 13.9513 29.4142 12.9385V8.96631C29.4142 7.95347 30.2382 7.12946 31.251 7.12946C32.2639 7.12946 33.0879 7.95347 33.0879 8.96631V12.9385C33.0879 13.9513 32.2639 14.7754 31.2511 14.7754Z" fill="#FFF3F3"/>
<path d="M31.251 7.12946H31.251V14.7754H31.2511C32.2639 14.7754 33.0879 13.9513 33.0879 12.9385V8.96631C33.0879 7.95351 32.2639 7.12946 31.251 7.12946Z" fill="#DAD0CB"/>
<path d="M31.251 16.6122H31.251V20.2858H31.251C32.2639 20.2858 33.0879 19.4618 33.0879 18.449C33.0879 17.4362 32.2639 16.6122 31.251 16.6122Z" fill="#DAD0CB"/>
<path d="M19.2392 25.4521V11.6931C19.2392 8.73922 16.8446 6.34454 13.8906 6.34454L13.0295 26.1194L13.8906 42.7085C19.1135 42.7085 23.3475 38.4745 23.3475 33.2516C23.3476 30.0139 21.7202 27.1568 19.2392 25.4521Z" fill="#EBEBEB"/>
<path d="M8.54212 11.6931V25.4521C6.06117 27.1568 4.43384 30.0139 4.43384 33.2515C4.43384 38.4744 8.66783 42.7084 13.8907 42.7084V6.34454C10.9368 6.34454 8.54212 8.73922 8.54212 11.6931V11.6931Z" fill="#F9F9F9"/>
<path d="M15.1821 27.7499V11.482H13.8906L13.126 29.3052L13.8906 38.9039C17.0073 38.9039 19.5429 36.3683 19.5429 33.2515C19.5429 30.5793 17.6783 28.3358 15.1821 27.7499V27.7499Z" fill="#9D9D9D"/>
<path d="M12.5991 11.482V27.7498C10.103 28.3358 8.23828 30.5793 8.23828 33.2515C8.23828 36.3683 10.7739 38.9039 13.8906 38.9039V11.482H12.5991Z" fill="#BDBDBD"/>
<path d="M20.5308 24.7996V11.6931C20.5308 8.0318 17.552 5.05301 13.8906 5.05301L13.0295 6.25853L13.8906 7.63608C16.1277 7.63608 17.9477 9.45611 17.9477 11.6931V26.1317L18.5079 26.5166C20.7296 28.0431 22.056 30.5608 22.056 33.2515C22.056 37.754 18.393 41.4169 13.8906 41.4169L13.0295 42.651L13.8906 43.9999C19.8173 43.9999 24.6391 39.1782 24.6391 33.2515C24.6391 29.9421 23.1155 26.832 20.5308 24.7996V24.7996Z" fill="#AFAFAF"/>
<path d="M5.72532 33.2515C5.72532 30.5608 7.05172 28.0431 9.27351 26.5166L9.83369 26.1317V11.6931C9.83369 9.45611 11.6537 7.63608 13.8907 7.63608V5.05301C10.2294 5.05301 7.25062 8.0318 7.25062 11.6931V24.7996C4.66591 26.832 3.14233 29.9421 3.14233 33.2515C3.14233 39.1782 7.96406 43.9999 13.8908 43.9999V41.4169C9.38828 41.4169 5.72532 37.754 5.72532 33.2515V33.2515Z" fill="#D0D0D0"/>
<g filter="url(#filter0_bf)">
<ellipse cx="22.5" cy="48" rx="20" ry="2" fill="#E0E0E0"/>
</g>
<defs>
<filter id="filter0_bf" x="-37.5" y="6" width="120" height="84" filterUnits="userSpaceOnUse" color-interpolation-filters="sRGB">
<feFlood flood-opacity="0" result="BackgroundImageFix"/>
<feGaussianBlur in="BackgroundImage" stdDeviation="20"/>
<feComposite in2="SourceAlpha" operator="in" result="effect1_backgroundBlur"/>
<feBlend mode="normal" in="SourceGraphic" in2="effect1_backgroundBlur" result="shape"/>
<feGaussianBlur stdDeviation="1" result="effect2_foregroundBlur"/>
</filter>
</defs>
</svg>
