<svg width="45" height="52" viewBox="0 0 45 52" fill="none" xmlns="http://www.w3.org/2000/svg">
<path d="M40.5661 17.714C40.5661 11.2194 35.9854 6.9046 35.9854 6.9046L33.7007 9.42533C31.8918 5.22448 28.6598 1.86365 28.6593 1.86322L27.7982 17.0307L28.6593 29.6209C35.2352 29.6208 40.5661 24.2899 40.5661 17.714Z" fill="#EA9B58"/>
<path d="M28.6591 1.86316C28.6591 1.86316 25.4268 5.22416 23.6177 9.42527L21.333 6.90453C21.333 6.90453 16.7523 11.2194 16.7523 17.714C16.7523 24.29 22.0832 29.6208 28.6591 29.6208V1.86316Z" fill="#FFC163"/>
<path d="M28.6593 13.5826L27.7982 19.7917L28.6593 24.4331C31.1483 24.4331 33.166 22.4154 33.166 19.9264C33.166 16.9219 28.6593 13.5826 28.6593 13.5826Z" fill="#FF4340"/>
<path d="M24.1526 19.9265C24.1526 22.4154 26.1703 24.4332 28.6593 24.4332V13.5826C28.6588 13.583 24.1526 16.9221 24.1526 19.9265Z" fill="#FF6326"/>
<path d="M41.8576 17.7141C41.8576 10.7419 37.0746 6.15632 36.871 5.96448L35.9126 5.06178L34.0274 7.14167C32.1503 3.65048 29.7093 1.09186 29.5901 0.967876L28.6592 0L27.7981 1.86317L28.6592 3.82415C28.6595 3.82389 28.6597 3.82354 28.66 3.82329C29.7063 5.08813 31.4027 7.35451 32.5144 9.93612L33.3088 11.7808L35.9797 8.8341C37.2046 10.3626 39.2746 13.5605 39.2746 17.7141C39.2746 23.5673 34.5126 28.3294 28.6593 28.3294L27.7982 29.6209L28.6593 30.9124C35.9368 30.9124 41.8576 24.9916 41.8576 17.7141Z" fill="#FDC673"/>
<path d="M28.6592 28.3294C22.806 28.3294 18.0439 23.5674 18.0439 17.7141C18.0439 13.5857 20.1175 10.374 21.342 8.83763L24.0097 11.7808L24.8041 9.93612C25.912 7.36321 27.6117 5.092 28.6593 3.82415V0L27.7284 0.967876C27.6092 1.09186 25.1682 3.65048 23.2911 7.14167L21.4059 5.06178L20.4476 5.96448C20.2439 6.15632 15.4609 10.7419 15.4609 17.7141C15.4609 24.9916 21.3817 30.9124 28.6593 30.9124L28.6592 28.3294Z" fill="#FFDF8E"/>
<path d="M34.4573 19.9265C34.4573 16.3742 29.9427 12.9264 29.428 12.545L28.6591 11.9752L27.798 13.5826L28.6591 15.2399C30.1295 16.5092 31.8742 18.4846 31.8742 19.9265C31.8742 21.6994 30.4319 23.1417 28.6591 23.1417L27.798 24.4332L28.6591 25.7247C31.8562 25.7246 34.4573 23.1237 34.4573 19.9265Z" fill="#FF6326"/>
<path d="M28.6592 23.1416C26.8864 23.1416 25.4441 21.6993 25.4441 19.9264C25.4441 18.4843 27.1891 16.5087 28.6592 15.2397L28.6593 15.2398V11.9752L27.8904 12.545C27.3756 12.9264 22.8611 16.3741 22.8611 19.9265C22.8611 23.1237 25.4621 25.7247 28.6593 25.7247L28.6592 23.1416Z" fill="#FD8C02"/>
<path d="M19.2392 25.452V11.6931C19.2392 8.73916 16.8446 6.34448 13.8906 6.34448L13.0295 26.1193L13.8906 42.7084C19.1135 42.7084 23.3475 38.4744 23.3475 33.2515C23.3476 30.0138 21.7202 27.1567 19.2392 25.452Z" fill="#EFE2DD"/>
<path d="M8.54212 11.6931V25.452C6.06117 27.1567 4.43384 30.0138 4.43384 33.2515C4.43384 38.4743 8.66783 42.7083 13.8907 42.7083V6.34448C10.9368 6.34448 8.54212 8.73916 8.54212 11.6931Z" fill="#FCFBF5"/>
<path d="M15.1821 27.7498V11.482H13.8906L13.126 29.3052L13.8906 38.9039C17.0073 38.9039 19.5429 36.3682 19.5429 33.2515C19.5429 30.5792 17.6783 28.3357 15.1821 27.7498Z" fill="#FF4340"/>
<path d="M12.5991 11.482V27.7498C10.103 28.3357 8.23828 30.5792 8.23828 33.2515C8.23828 36.3682 10.7739 38.9039 13.8906 38.9039V11.482H12.5991Z" fill="#FF6326"/>
<path d="M20.5308 24.7996V11.6931C20.5308 8.03177 17.552 5.05298 13.8906 5.05298L13.0295 6.2585L13.8906 7.63605C16.1277 7.63605 17.9477 9.45608 17.9477 11.6931V26.1317L18.5079 26.5166C20.7296 28.0431 22.056 30.5608 22.056 33.2515C22.056 37.7539 18.393 41.4168 13.8906 41.4168L13.0295 42.6509L13.8906 43.9999C19.8173 43.9999 24.6391 39.1782 24.6391 33.2515C24.6391 29.9421 23.1155 26.832 20.5308 24.7996Z" fill="#DCD2CD"/>
<path d="M5.72532 33.2515C5.72532 30.5608 7.05172 28.0431 9.27351 26.5166L9.83369 26.1317V11.6931C9.83369 9.45608 11.6537 7.63605 13.8907 7.63605V5.05298C10.2294 5.05298 7.25062 8.03177 7.25062 11.6931V24.7996C4.66591 26.832 3.14233 29.9421 3.14233 33.2515C3.14233 39.1782 7.96406 43.9999 13.8908 43.9999V41.4168C9.38828 41.4169 5.72532 37.7539 5.72532 33.2515Z" fill="#EBE1DC"/>
<g filter="url(#filter0_bf)">
<ellipse cx="22.5" cy="48" rx="20" ry="2" fill="#E0E0E0"/>
</g>
<defs>
<filter id="filter0_bf" x="-37.5" y="6" width="120" height="84" filterUnits="userSpaceOnUse" color-interpolation-filters="sRGB">
<feFlood flood-opacity="0" result="BackgroundImageFix"/>
<feGaussianBlur in="BackgroundImage" stdDeviation="20"/>
<feComposite in2="SourceAlpha" operator="in" result="effect1_backgroundBlur"/>
<feBlend mode="normal" in="SourceGraphic" in2="effect1_backgroundBlur" result="shape"/>
<feGaussianBlur stdDeviation="1" result="effect2_foregroundBlur"/>
</filter>
</defs>
</svg>
