<svg width="32" height="32" viewBox="0 0 32 32" fill="none" xmlns="http://www.w3.org/2000/svg">
<path d="M8.88889 24.8447H10.4019V21.6307H10.4323C10.7969 22.3841 11.5321 22.8458 12.4497 22.8458C14.066 22.8458 15.099 21.5699 15.099 19.5042V19.4981C15.099 17.4202 14.066 16.1444 12.4314 16.1444C11.5078 16.1444 10.803 16.6183 10.4323 17.3899H10.4019V16.278H8.88889V24.8447ZM11.9818 21.5699C11.046 21.5699 10.3898 20.7619 10.3898 19.5042V19.4981C10.3898 18.2344 11.046 17.4202 11.9818 17.4202C12.9479 17.4202 13.5556 18.2101 13.5556 19.4981V19.5042C13.5556 20.774 12.9479 21.5699 11.9818 21.5699Z" fill="#34C759"/>
<path d="M15.8942 22.7182H17.4619V18.9149H21.7275V22.7182H23.2892V13.9511H21.7275V17.5964H17.4619V13.9511H15.8942V22.7182Z" fill="#34C759"/>
<path d="M2.14359 27.9971C0.739229 25.565 -7.35671e-05 22.806 5.49092e-09 19.9976C7.35781e-05 17.1893 0.739521 14.4304 2.14401 11.9983C3.54851 9.56624 5.56855 7.54671 8.00109 6.1427C10.4336 4.7387 13.1929 3.99971 16.0017 4C18.8104 4.00029 21.5696 4.73987 24.0018 6.14438C26.4341 7.5489 28.4537 9.56885 29.8577 12.0012C31.2616 14.4336 32.0005 17.1926 32 20.001C31.9995 22.8094 31.2596 25.5682 29.8547 28L26.391 25.9995C27.4447 24.1756 27.9996 22.1066 28 20.0003C28.0004 17.894 27.4462 15.8247 26.3932 14.0004C25.3403 12.1762 23.8255 10.6612 22.0014 9.6078C20.1772 8.55442 18.1078 7.99974 16.0013 7.99952C13.8947 7.99929 11.8252 8.55354 10.0008 9.60654C8.17641 10.6595 6.66138 12.1742 5.60801 13.9982C4.55464 15.8223 4.00006 17.8915 4 19.9977C3.99994 22.104 4.55442 24.1732 5.6077 25.9973L2.14359 27.9971Z" fill="#34C759"/>
</svg>
