<svg width="45" height="52" viewBox="0 0 45 52" fill="none" xmlns="http://www.w3.org/2000/svg">
<path d="M4.63498 5.28215C1.96834 8.9919 1.65991 10.8479 1.65991 11.9213C1.65991 16.0012 4.97916 19.3205 9.05904 19.3205C9.063 19.3205 9.06695 19.3202 9.0709 19.3201L11.6 10.6348L9.07812 0C9.07812 0 5.96211 3.43595 4.63498 5.28215V5.28215Z" fill="#BFE85F"/>
<path d="M16.4583 11.9213C16.4583 10.8479 16.1499 8.99181 13.4832 5.28215C12.2136 3.51596 9.32628 0.277664 9.07826 0L9.07104 19.3201C13.1454 19.3137 16.4583 15.9973 16.4583 11.9213V11.9213Z" fill="#00CB76"/>
<path d="M12.0838 14.4376C7.58496 20.6961 7.0647 23.8273 7.0647 25.6384C7.0647 32.5213 12.6645 38.1211 19.5475 38.1211C19.5542 38.1211 19.5608 38.1206 19.5675 38.1206L23.8342 23.468L19.5796 5.5264C19.5796 5.5264 14.3227 11.3231 12.0838 14.4376V14.4376Z" fill="#AEEB88"/>
<path d="M32.0303 25.6383C32.0303 23.8274 31.5099 20.6961 27.0112 14.4376C24.8693 11.4581 19.9983 5.99476 19.5797 5.5264L19.5676 38.1206C26.4414 38.1096 32.0303 32.5145 32.0303 25.6383V25.6383Z" fill="#0EC642"/>
<path d="M19.5674 32.1137C19.5674 38.6678 24.8995 44 31.4537 44L34.5633 32.1137L31.4537 20.2274C24.8995 20.2274 19.5674 25.5596 19.5674 32.1137Z" fill="#8DF274"/>
<path d="M31.4536 20.2274C31.4536 20.2274 31.4537 20.2274 31.4536 20.2274V44C38.0077 44 43.3399 38.6678 43.3399 32.1137C43.3399 25.5596 38.0077 20.2274 31.4536 20.2274V20.2274Z" fill="#2BD600"/>
<path d="M28.7915 5.15625H31.3696V7.73438H28.7915V5.15625Z" fill="#00BB6D"/>
<path d="M28.7915 0H31.3696V2.57812H28.7915V0Z" fill="#B4FF00"/>
<path d="M26.2134 2.57812H28.7915V5.15625H26.2134V2.57812Z" fill="#B4FF00"/>
<path d="M31.3696 2.57812H33.9478V5.15625H31.3696V2.57812Z" fill="#00BB6D"/>
<path d="M33.9478 10.3125H36.5259V12.8906H33.9478V10.3125Z" fill="#B4FF00"/>
<path d="M36.5259 7.73438H39.104V10.3125H36.5259V7.73438Z" fill="#B4FF00"/>
<path d="M29.3149 28.898C29.786 29.1101 30.1494 29.4129 30.4053 29.8067C30.661 30.2004 30.7889 30.6633 30.7889 31.1949C30.7889 31.7267 30.661 32.1878 30.4053 32.5781C30.1493 32.9686 29.786 33.2697 29.3149 33.4818C28.8437 33.6938 28.2885 33.7997 27.6489 33.7997H26.4173V35.6474H24.4182V28.58H27.6489C28.2885 28.58 28.8437 28.686 29.3149 28.898V28.898ZM28.4568 31.9572C28.6653 31.779 28.7697 31.5248 28.7697 31.195C28.7697 30.8652 28.6653 30.6094 28.4568 30.4276C28.248 30.2459 27.9384 30.155 27.5279 30.155H26.4173V32.2248H27.5279C27.9384 32.2248 28.248 32.1356 28.4568 31.9572Z" fill="#EBF4FE"/>
<path d="M38.9907 28.58V35.6474H36.9916V32.8911H34.2656V35.6474H32.2665V28.58H34.2656V31.2353H36.9916V28.58H38.9907Z" fill="#D2E5FC"/>
<g filter="url(#filter0_bf)">
<ellipse cx="22.5" cy="48" rx="17" ry="2" fill="#E0E0E0"/>
</g>
<defs>
<filter id="filter0_bf" x="-34.5" y="6" width="114" height="84" filterUnits="userSpaceOnUse" color-interpolation-filters="sRGB">
<feFlood flood-opacity="0" result="BackgroundImageFix"/>
<feGaussianBlur in="BackgroundImage" stdDeviation="20"/>
<feComposite in2="SourceAlpha" operator="in" result="effect1_backgroundBlur"/>
<feBlend mode="normal" in="SourceGraphic" in2="effect1_backgroundBlur" result="shape"/>
<feGaussianBlur stdDeviation="1" result="effect2_foregroundBlur"/>
</filter>
</defs>
</svg>
