<?xml version="1.0" encoding="utf-8"?>
<!-- Generator: Adobe Illustrator 24.0.3, SVG Export Plug-In . SVG Version: 6.00 Build 0)  -->
<svg version="1.1" id="Layer_1" xmlns="http://www.w3.org/2000/svg" xmlns:xlink="http://www.w3.org/1999/xlink" x="0px" y="0px"
	 viewBox="0 0 25 24" style="enable-background:new 0 0 25 24;" xml:space="preserve">
<style type="text/css">
	.st0{fill:none;stroke:#CFD8DC;stroke-linecap:round;stroke-linejoin:round;stroke-miterlimit:10;}
	.st1{fill:none;stroke:#CFD8DC;stroke-width:0.8;stroke-linecap:round;stroke-linejoin:round;stroke-miterlimit:10;}
</style>
<path class="st0" d="M15.4,12c1.8,0,3.3-1.5,3.3-3.3c0-1.8-1.5-3.3-3.3-3.3s-3.3,1.5-3.3,3.3C12.1,10.5,13.6,12,15.4,12z"/>
<path class="st0" d="M10.2,6.2c0.1-0.3,0.3-0.5,0.4-0.7l0-1.8c0-0.2,0.1-0.3,0.2-0.4c0.6-0.5,1.4-1,2.2-1.2c0.2-0.1,0.3,0,0.5,0
	L15,3c0.3,0,0.6,0,0.9,0l1.5-0.9c0.1-0.1,0.3-0.1,0.5,0c0.8,0.3,1.5,0.7,2.2,1.2c0.1,0.1,0.2,0.3,0.2,0.4l0,1.8
	c0.2,0.2,0.3,0.5,0.4,0.7l1.5,0.9c0.1,0.1,0.2,0.2,0.3,0.4c0.1,0.8,0.1,1.7,0,2.5c0,0.2-0.1,0.3-0.3,0.4l-1.5,0.9
	c-0.1,0.3-0.3,0.5-0.4,0.7l0,1.8c0,0.2-0.1,0.3-0.2,0.4c-0.6,0.5-1.4,1-2.2,1.2c-0.2,0.1-0.3,0-0.5,0l-1.5-0.9c-0.3,0-0.6,0-0.9,0
	l-1.5,0.9c-0.1,0.1-0.3,0.1-0.5,0c-0.8-0.3-1.5-0.7-2.2-1.2c-0.1-0.1-0.2-0.3-0.2-0.4l0-1.8c-0.2-0.2-0.3-0.5-0.4-0.7l-1.5-0.9
	c-0.1-0.1-0.2-0.2-0.3-0.4c-0.1-0.8-0.1-1.7,0-2.5c0-0.2,0.1-0.3,0.3-0.4L10.2,6.2z"/>
<path class="st1" d="M5.2,20.8c1.1,0,1.9-0.9,1.9-1.9c0-1.1-0.9-1.9-1.9-1.9s-1.9,0.9-1.9,1.9C3.3,20,4.2,20.8,5.2,20.8z"/>
<path class="st1" d="M2.2,17.5c0.1-0.2,0.2-0.3,0.3-0.4l0-1c0-0.1,0-0.2,0.1-0.3c0.4-0.3,0.8-0.6,1.3-0.7c0.1,0,0.2,0,0.3,0L5,15.6
	c0.2,0,0.3,0,0.5,0L6.4,15c0.1,0,0.2-0.1,0.3,0c0.5,0.2,0.9,0.4,1.3,0.7C8,15.8,8,15.9,8,16l0,1c0.1,0.1,0.2,0.3,0.3,0.4L9.1,18
	c0.1,0,0.1,0.1,0.2,0.2c0.1,0.5,0.1,1,0,1.4c0,0.1-0.1,0.2-0.2,0.2l-0.9,0.5c-0.1,0.2-0.2,0.3-0.3,0.4l0,1c0,0.1,0,0.2-0.1,0.3
	c-0.4,0.3-0.8,0.6-1.3,0.7c-0.1,0-0.2,0-0.3,0l-0.9-0.5c-0.2,0-0.3,0-0.5,0l-0.9,0.5c-0.1,0-0.2,0.1-0.3,0c-0.5-0.2-0.9-0.4-1.3-0.7
	c-0.1-0.1-0.1-0.2-0.1-0.3l0-1c-0.1-0.1-0.2-0.3-0.3-0.4l-0.9-0.5c-0.1,0-0.1-0.1-0.2-0.2c-0.1-0.5-0.1-1,0-1.4
	c0-0.1,0.1-0.2,0.2-0.2L2.2,17.5z"/>
</svg>
