<?xml version="1.0" encoding="utf-8"?>
<!-- Generator: Adobe Illustrator 24.0.3, SVG Export Plug-In . SVG Version: 6.00 Build 0)  -->
<svg version="1.1" id="Layer_1" xmlns="http://www.w3.org/2000/svg" xmlns:xlink="http://www.w3.org/1999/xlink" x="0px" y="0px"
	 viewBox="0 0 25 24" style="enable-background:new 0 0 25 24;" xml:space="preserve">
<style type="text/css">
	.st0{fill-rule:evenodd;clip-rule:evenodd;fill:#64B5F6;}
</style>
<path class="st0" d="M21.5,9.9c0.3,0.1,0.5,0.4,0.6,0.6c0.3,0.5,0.3,1,0,1.5l-0.5,0.9c-0.3,0.5-0.8,0.8-1.3,0.8
	c-0.3,0-0.6-0.1-0.8-0.2c-0.2-0.1-0.4-0.2-0.7-0.2c-0.7,0-1.4,0.6-1.4,1.3c0,0.8-0.7,1.5-1.5,1.5h-1c-0.9,0-1.5-0.7-1.5-1.5
	c0-0.7-0.6-1.3-1.4-1.3c-0.2,0-0.5,0-0.7,0.2c-0.2,0.1-0.5,0.2-0.8,0.2c-0.5,0-1-0.3-1.3-0.8l-0.5-0.9c-0.3-0.5-0.3-1,0-1.5
	C8.8,10.2,9,10,9.3,9.9c0.2-0.1,0.3-0.3,0.5-0.5C10.1,8.8,9.9,8,9.3,7.6c-0.7-0.4-1-1.3-0.6-2.1l0.5-0.9c0.4-0.7,1.4-1,2.1-0.6
	c0.6,0.3,1.5,0.1,1.9-0.5c0.1-0.2,0.2-0.4,0.2-0.6c0-0.3,0.1-0.6,0.2-0.8c0.3-0.5,0.8-0.7,1.3-0.8h1c0.5,0,1,0.3,1.3,0.8
	c0.1,0.2,0.2,0.5,0.2,0.8c0,0.2,0.1,0.4,0.2,0.6c0.4,0.6,1.2,0.9,1.9,0.5c0.7-0.4,1.7-0.2,2.1,0.6l0.5,0.9c0.4,0.7,0.2,1.6-0.5,2.1
	C20.9,8,20.7,8.8,21,9.4C21.2,9.6,21.3,9.8,21.5,9.9z M13.3,8.7c0,1.1,0.9,2.1,2.1,2.1c1.2,0,2.1-0.9,2.1-2.1s-0.9-2.1-2.1-2.1
	C14.2,6.7,13.3,7.6,13.3,8.7z"/>
<path class="st0" d="M8.8,19.6c0.2,0.1,0.3,0.2,0.4,0.3c0.2,0.3,0.1,0.6,0,0.9l-0.3,0.5c-0.2,0.3-0.5,0.4-0.8,0.4
	c-0.2,0-0.3,0-0.5-0.1c-0.1-0.1-0.2-0.1-0.4-0.1c-0.4,0-0.8,0.4-0.8,0.8c0,0.5-0.4,0.9-0.9,0.9H4.9c-0.5,0-0.9-0.4-0.9-0.9
	c0-0.4-0.4-0.8-0.8-0.8c-0.1,0-0.3,0-0.4,0.1c-0.1,0.1-0.3,0.1-0.5,0.1c-0.3,0-0.6-0.2-0.8-0.4l-0.3-0.5c-0.2-0.3-0.2-0.6,0-0.9
	c0.1-0.1,0.2-0.3,0.3-0.3c0.1-0.1,0.2-0.2,0.3-0.3c0.2-0.4,0.1-0.8-0.3-1.1C1.2,18,1.1,17.5,1.3,17l0.3-0.5c0.3-0.4,0.8-0.6,1.2-0.3
	c0.4,0.2,0.9,0.1,1.1-0.3C4,15.8,4,15.7,4,15.6c0-0.2,0-0.3,0.1-0.4c0.2-0.3,0.5-0.4,0.8-0.4h0.6c0.3,0,0.6,0.2,0.8,0.4
	c0.1,0.1,0.1,0.3,0.1,0.4c0,0.1,0,0.3,0.1,0.4c0.2,0.4,0.7,0.5,1.1,0.3c0.4-0.2,1-0.1,1.2,0.3L9.1,17c0.3,0.4,0.1,1-0.3,1.2
	c-0.4,0.2-0.5,0.7-0.3,1.1C8.6,19.4,8.7,19.5,8.8,19.6z M4,18.9c0,0.7,0.6,1.2,1.2,1.2c0.7,0,1.2-0.5,1.2-1.2c0-0.7-0.5-1.2-1.2-1.2
	C4.5,17.7,4,18.2,4,18.9z"/>
</svg>
