<svg width="33" height="32" viewBox="0 0 33 32" fill="none" xmlns="http://www.w3.org/2000/svg">
<g clip-path="url(#clip0)">
<path d="M8.81975 29.7372H24.8472C29.2261 27.0424 32.146 22.2062 32.146 16.6875C32.146 8.23063 25.2904 1.375 16.8335 1.375C8.37662 1.375 1.521 8.23063 1.521 16.6875C1.521 22.2062 4.44093 27.0424 8.81975 29.7372Z" fill="#3B3868"/>
<path d="M16.8336 32C19.7717 32 22.5161 31.1718 24.8473 29.7372L18.5463 23.4362C17.6004 22.4903 16.0667 22.4903 15.1208 23.4362L8.81982 29.7372C11.1511 31.1718 13.8954 32 16.8336 32Z" fill="#BEC8F7"/>
<path d="M19.3407 24.2305L18.5464 23.4362C17.6004 22.4903 16.0668 22.4903 15.1209 23.4362L8.81982 29.7372C9.89732 30.4003 11.0633 30.9335 12.2957 31.3156L19.3407 24.2305Z" fill="#A6B4E8"/>
<path d="M25.1668 25H8.50018C6.199 25 4.3335 23.1345 4.3335 20.8333V4.16669C4.3335 1.8655 6.199 0 8.50018 0H25.1669C27.468 0 29.3335 1.8655 29.3335 4.16669V20.8334C29.3335 23.1345 27.468 25 25.1668 25Z" fill="#D3DCFB"/>
<path d="M25.5967 4.67444C26.1144 4.67444 26.5342 4.2547 26.5342 3.73694C26.5342 3.21917 26.1144 2.79944 25.5967 2.79944C25.0789 2.79944 24.6592 3.21917 24.6592 3.73694C24.6592 4.2547 25.0789 4.67444 25.5967 4.67444Z" fill="#FF4155"/>
<path d="M25.5967 3.73694C25.5967 3.39012 25.7855 3.08806 26.0654 2.92587C25.9274 2.84594 25.7676 2.79944 25.5967 2.79944C25.0789 2.79944 24.6592 3.21919 24.6592 3.73694C24.6592 4.25469 25.0789 4.67444 25.5967 4.67444C25.7676 4.67444 25.9274 4.62794 26.0654 4.548C25.7854 4.38581 25.5967 4.08369 25.5967 3.73694Z" fill="#E80054"/>
<path d="M9.88906 20.8333V4.16669C9.88906 1.8655 11.7546 0 14.0557 0H8.50018C6.199 0 4.3335 1.8655 4.3335 4.16669V20.8334C4.3335 23.1345 6.199 25 8.50018 25H14.0557C11.7546 25 9.88906 23.1345 9.88906 20.8333Z" fill="#BEC8F7"/>
<path d="M16.8336 22.2223C22.203 22.2223 26.5558 17.8695 26.5558 12.5C26.5558 7.13055 22.203 2.77775 16.8336 2.77775C11.4641 2.77775 7.11133 7.13055 7.11133 12.5C7.11133 17.8695 11.4641 22.2223 16.8336 22.2223Z" fill="white"/>
<path d="M15.6183 21.0069C15.6183 20.3358 16.1625 19.7917 16.8336 19.7917V5.20832C16.1624 5.20832 15.6183 4.66419 15.6183 3.99307C15.6183 3.32194 16.1624 2.77775 16.8336 2.77775C11.4641 2.77775 7.11133 7.13057 7.11133 12.5C7.11133 17.8694 11.4641 22.2223 16.8336 22.2223C16.1624 22.2223 15.6183 21.6781 15.6183 21.0069Z" fill="#E9EFFF"/>
<path d="M16.8337 19.7917C20.8608 19.7917 24.1254 16.5271 24.1254 12.5C24.1254 8.47292 20.8608 5.20832 16.8337 5.20832C12.8066 5.20832 9.54199 8.47292 9.54199 12.5C9.54199 16.5271 12.8066 19.7917 16.8337 19.7917Z" fill="#3B3868"/>
<path d="M16.8337 18.5764C20.1896 18.5764 22.9101 15.8559 22.9101 12.5C22.9101 9.14412 20.1896 6.42363 16.8337 6.42363C13.4778 6.42363 10.7573 9.14412 10.7573 12.5C10.7573 15.8559 13.4778 18.5764 16.8337 18.5764Z" fill="#8AE1FF"/>
<path d="M15.4159 17.1586C15.4159 16.3755 16.0507 15.7408 16.8337 15.7408V9.25926C16.0506 9.25926 15.4159 8.62444 15.4159 7.84144C15.4159 7.05844 16.0507 6.42363 16.8337 6.42363C13.4832 6.42363 10.7573 9.14951 10.7573 12.5C10.7573 15.8505 13.4832 18.5764 16.8337 18.5764C16.0506 18.5764 15.4159 17.9416 15.4159 17.1586Z" fill="#42C3FC"/>
<path d="M16.8335 15.7408C18.6233 15.7408 20.0743 14.2898 20.0743 12.5C20.0743 10.7102 18.6233 9.25925 16.8335 9.25925C15.0437 9.25925 13.5928 10.7102 13.5928 12.5C13.5928 14.2898 15.0437 15.7408 16.8335 15.7408Z" fill="#1AA9E8"/>
<path d="M18.4539 12.5C19.3488 12.5 20.0742 11.7745 20.0742 10.8796C20.0742 9.98472 19.3488 9.25925 18.4539 9.25925C17.559 9.25925 16.8335 9.98472 16.8335 10.8796C16.8335 11.7745 17.559 12.5 18.4539 12.5Z" fill="#B8F0FF"/>
<path d="M19.646 29.8644H14.021C13.5032 29.8644 13.0835 29.4446 13.0835 28.9269C13.0835 28.4091 13.5032 27.9894 14.021 27.9894H19.646C20.1637 27.9894 20.5835 28.4091 20.5835 28.9269C20.5835 29.4446 20.1637 29.8644 19.646 29.8644Z" fill="#D3DCFB"/>
</g>
<defs>
<clipPath id="clip0">
<rect width="32" height="32" fill="white" transform="translate(0.833496)"/>
</clipPath>
</defs>
</svg>
